<svg xmlns="http://www.w3.org/2000/svg" version="1.1" width="460" height="460"><path d="M0 0 C151.8 0 303.6 0 460 0 C460 151.8 460 303.6 460 460 C308.2 460 156.4 460 0 460 C0 308.2 0 156.4 0 0 Z " fill="#171315" transform="translate(0,0)"></path><path d="M0 0 C6.44038383 -0.25403922 12.87947378 -0.428854 19.32373047 -0.54931641 C21.51432563 -0.59953712 23.70458667 -0.66773196 25.89404297 -0.75439453 C29.0473862 -0.87606234 32.1962969 -0.93246956 35.3515625 -0.9765625 C36.8144017 -1.05398178 36.8144017 -1.05398178 38.30679321 -1.13296509 C41.1907839 -1.13533152 43.29932741 -1.02477191 46 0 C48.71218666 3.03311641 50.35594416 6.30141735 52 10 C52.66063844 11.34285159 53.32191297 12.68539084 53.984375 14.02734375 C54.57695079 15.32890004 55.16539549 16.63234392 55.75 17.9375 C59.30131415 25.65692644 63.18039769 33.16097168 67.171875 40.66015625 C69.85119026 45.69776724 72.46847283 50.76630621 75.08325195 55.83764648 C79.92453621 65.22666391 84.82237813 74.56965808 89.9375 83.8125 C95.44137761 93.77552052 100.52167604 103.93458979 105.58056641 114.12744141 C109.27332608 121.56513494 113.02649799 128.96147009 116.93310547 136.28955078 C119.80712348 141.69608446 122.61466003 147.13455258 125.40234375 152.5859375 C125.99611565 153.74592003 125.99611565 153.74592003 126.60188293 154.92933655 C128.21282576 158.07701125 129.8236463 161.22472233 131.42739868 164.37606812 C135.69114484 172.75369615 139.97717533 181.042313 145 189 C146.44137875 186.79411638 147.87815365 184.58545003 149.3125 182.375 C149.91868164 181.44880859 149.91868164 181.44880859 150.53710938 180.50390625 C152.43073997 177.57878582 154.12850725 174.73817024 155.66796875 171.6015625 C157 169 157 169 159 168 C159.73170471 166.34681126 160.45627934 164.68997006 161.13818359 163.015625 C162.6211721 159.54719636 164.47236978 156.28919549 166.3125 153 C166.73982422 152.23308838 167.16714844 151.46617676 167.60742188 150.67602539 C172.39354923 142.17252578 177.50675934 133.8704987 182.609375 125.5546875 C185.07686215 121.52813445 187.50487799 117.48230093 189.88378906 113.40283203 C190.68616789 112.02834965 191.49650899 110.65836449 192.32528687 109.29963684 C194.40876044 105.85056369 196.27898032 102.45868817 197.85595703 98.74780273 C199.92463878 94.24952446 202.06116756 90.12198827 206 87 C213.17214705 84.42341425 221.16831965 85.49743563 228.625 86 C230.698944 86.08035277 232.7731872 86.15334029 234.84765625 86.21875 C239.90588151 86.39420543 244.94962956 86.6695366 250 87 C248.62525796 91.30265325 247.07647805 94.76115745 244.625 98.5625 C240.95174878 104.3630968 237.51311109 110.27885215 234.125 116.25 C229.27603479 124.78096583 224.3541693 133.26307247 219.35546875 141.70703125 C217.85815591 144.23994952 216.36637179 146.77607937 214.875 149.3125 C209.57246074 158.32288311 204.24250001 167.31571882 198.8125 176.25 C198.35496338 177.00659912 197.89742676 177.76319824 197.42602539 178.54272461 C194.23761892 183.76238108 194.23761892 183.76238108 192 186 C191.67 186.66 191.34 187.32 191 188 C189.02 188 187.04 188 185 188 C185.33 188.99 185.66 189.98 186 191 C184.92745123 193.51698632 183.45196548 195.66805545 182 198 C181.34 198 180.68 198 180 198 C179.67 198.66 179.34 199.32 179 200 C178.67 198.68 178.34 197.36 178 196 C177.855625 196.7425 177.71125 197.485 177.5625 198.25 C177.24550824 199.79973751 176.90757721 201.34658548 176.5 202.875 C175.91055178 205.18930352 175.91055178 205.18930352 175.625 208.375 C174.98451824 212.08979419 173.83405254 214.73060199 172 218 C171.34 218 170.68 218 170 218 C169.896875 219.0725 169.79375 220.145 169.6875 221.25 C169.01592042 224.91316136 168.52207519 226.38092192 166 229 C165.01 229.66 164.02 230.32 163 231 C162.34 230.67 161.68 230.34 161 230 C161.2475 231.0725 161.495 232.145 161.75 233.25 C162 237 162 237 160.1875 239.1875 C159.465625 239.785625 158.74375 240.38375 158 241 C156.76487921 243.13309192 156.76487921 243.13309192 156 245 C154.35 244.67 152.7 244.34 151 244 C151 244.99 151 245.98 151 247 C149.88625 247.144375 148.7725 247.28875 147.625 247.4375 C144.17857953 247.78372035 144.17857953 247.78372035 142 249 C139.44842345 249.0716735 136.92527029 249.09308442 134.375 249.0625 C133.66859375 249.05798828 132.9621875 249.05347656 132.234375 249.04882812 C130.48954725 249.03703875 128.744763 249.01910324 127 249 C126.67 248.34 126.34 247.68 126 247 C128.97 247 131.94 247 135 247 C135 246.34 135 245.68 135 245 C133.95199219 245.01740234 133.95199219 245.01740234 132.8828125 245.03515625 C131.97273437 245.04417969 131.06265625 245.05320312 130.125 245.0625 C128.76761719 245.07990234 128.76761719 245.07990234 127.3828125 245.09765625 C125 245 125 245 123 244 C122.27840576 242.35636866 121.60648579 240.68949614 121 239 C120.67 239 120.34 239 120 239 C119.896875 237.989375 119.79375 236.97875 119.6875 235.9375 C118.96295233 231.78781792 117.77730734 228.78643737 116 225 C115.01 225 114.02 225 113 225 C110.95669115 221.08418801 108.91566533 217.16719018 106.875 213.25 C106.30523437 212.15816406 105.73546875 211.06632813 105.1484375 209.94140625 C101.83796575 203.58379574 98.59165396 197.19919761 95.39794922 190.78222656 C93.36660497 186.7394045 91.24981607 182.74423937 89.125 178.75 C85.07572849 171.09082516 81.15054436 163.38143965 77.30371094 155.61914062 C75.68225075 152.36164534 74.04812852 149.11055695 72.4140625 145.859375 C71.41976903 143.87880494 70.42570591 141.89811945 69.43173218 139.91738892 C68.7821883 138.62390359 68.13200829 137.33073746 67.48110962 136.03793335 C63.98977567 129.10145343 60.5722754 122.14242855 57.3125 115.09375 C54.87798344 109.82975563 52.33774756 104.65527656 49.5625 99.5625 C46.70856113 94.24676653 43.92299224 88.90899373 41.25 83.5 C38.36807061 77.66987304 35.38681016 71.89755696 32.3659668 66.13818359 C27.07024167 56.0397172 21.97043373 45.884851 17.11645508 35.56689453 C13.2392643 27.3745248 9.07023016 19.34986976 4.79467773 11.35888672 C4.31329346 10.45283691 3.83190918 9.54678711 3.3359375 8.61328125 C2.90845215 7.81704346 2.4809668 7.02080566 2.04052734 6.20043945 C1.05775201 4.12213019 0.52039253 2.2282534 0 0 Z " fill="#4B91BC" transform="translate(88,128)"></path><path d="M0 0 C1.65970322 0.06967735 1.65970322 0.06967735 3.35293579 0.14076233 C5.07149277 0.15986412 5.07149277 0.15986412 6.82476807 0.17935181 C10.47435616 0.22962603 14.11892078 0.34252021 17.76699829 0.45716858 C20.24479092 0.50232234 22.72266171 0.54338534 25.20059204 0.58021545 C31.26610012 0.67929797 37.32869042 0.82977456 43.39199829 1.01966858 C41.91093219 4.81001495 40.21884794 8.29656109 38.23184204 11.85169983 C37.29562012 13.5317511 37.29562012 13.5317511 36.34048462 15.2457428 C35.67025712 16.44127484 34.99992623 17.63674892 34.32949829 18.83216858 C33.64136387 20.0639751 32.95345826 21.29590947 32.26577759 22.52796936 C30.31148129 26.0272425 28.35193468 29.52355157 26.39199829 33.01966858 C25.53510602 34.55215276 24.67831329 36.08469262 23.82168579 37.61732483 C18.68640303 46.78928036 13.46671029 55.91317332 8.24356079 65.03529358 C6.54548878 68.0010352 4.85107446 70.96871823 3.16543579 73.94154358 C-0.44703231 80.30294159 -4.13607605 86.61146028 -7.91488647 92.87513733 C-11.22247682 98.36123482 -14.48061256 103.87570031 -17.73300171 109.39466858 C-22.58663387 117.62868904 -27.49145071 125.83059819 -32.42050171 134.01966858 C-36.93882595 141.53069342 -41.40005424 149.06083776 -45.71347046 156.69154358 C-51.51956872 166.89112238 -57.53726528 176.97580791 -63.60800171 187.01966858 C-65.98430379 184.0413058 -67.71502276 181.02651523 -69.39315796 177.60951233 C-70.18170166 176.01502258 -70.18170166 176.01502258 -70.98617554 174.38832092 C-71.54200317 173.25604065 -72.09783081 172.12376038 -72.67050171 170.95716858 C-76.66525191 162.88736049 -80.69398635 154.84579538 -84.92050171 146.89466858 C-87.80217037 141.468445 -90.63306449 136.02632752 -93.35800171 130.51966858 C-101.22446063 114.6409615 -109.50370494 98.96118689 -117.78378296 83.2950592 C-120.18254243 78.74983697 -122.55613048 74.19239818 -124.91268921 69.62513733 C-131.15674636 57.52479914 -137.46019089 45.47244223 -144.05282593 33.55751038 C-144.52220581 32.70713196 -144.99158569 31.85675354 -145.47518921 30.98060608 C-145.88881714 30.23601135 -146.30244507 29.49141663 -146.72860718 28.72425842 C-147.60800171 27.01966858 -147.60800171 27.01966858 -147.60800171 26.01966858 C-137.04800171 26.01966858 -126.48800171 26.01966858 -115.60800171 26.01966858 C-113.62800171 29.48466858 -111.64800171 32.94966858 -109.60800171 36.51966858 C-109.00214233 37.57476624 -108.39628296 38.62986389 -107.77206421 39.7169342 C-103.84763333 46.62453018 -100.24074596 53.65061578 -96.71884155 60.76771545 C-93.40708104 67.45835235 -89.99700619 74.09902426 -86.5887146 80.74085999 C-85.80297335 82.27358911 -85.01882018 83.80713329 -84.23617554 85.34144592 C-83.0784301 87.61098123 -81.91600073 89.87806251 -80.75253296 92.14466858 C-80.40970779 92.8187677 -80.06688263 93.49286682 -79.71366882 94.18739319 C-77.2540172 98.96044788 -74.51336902 103.50508195 -71.60800171 108.01966858 C-67.3292194 100.93481013 -63.13852085 93.80237422 -58.98300171 86.64466858 C-54.41837242 78.79479717 -49.80239879 70.98010264 -45.10800171 63.20716858 C-41.68016567 57.52604659 -38.34298083 51.82943029 -35.22128296 45.97279358 C-32.50520919 41.00099753 -29.63537555 36.11776494 -26.78671265 31.22108459 C-24.61694481 27.49054817 -22.45172875 23.75862556 -20.33065796 20.00013733 C-19.98373901 19.38630188 -19.63682007 18.77246643 -19.27938843 18.14002991 C-18.36943893 16.52582917 -17.46316606 14.90955734 -16.55722046 13.29310608 C-15.91397827 12.2128717 -15.27073608 11.13263733 -14.60800171 10.01966858 C-14.25082565 9.27468613 -13.8936496 8.52970367 -13.52565002 7.762146 C-10.03939194 1.30692534 -7.24942162 -0.00473562 0 0 Z " fill="#01ECC1" transform="translate(297.6080017089844,101.98033142089844)"></path><path d="M0 0 C10.56 0 21.12 0 32 0 C33.98 3.465 35.96 6.93 38 10.5 C38.60585937 11.55509766 39.21171875 12.61019531 39.8359375 13.69726562 C43.76110908 20.60616535 47.36643026 27.63414688 50.88916016 34.75244141 C54.19457162 41.42657305 57.61178048 48.04385404 61.01928711 54.66625977 C62.1988457 56.95955832 63.37583899 59.25416192 64.55273438 61.54882812 C69.70503548 71.58903749 69.70503548 71.58903749 75.21606445 81.43579102 C76 83 76 83 76 85 C77.485 85.495 77.485 85.495 79 86 C80.14746094 87.8190918 80.14746094 87.8190918 81.234375 90.19921875 C81.84333618 91.50910767 81.84333618 91.50910767 82.46459961 92.84545898 C83.1008728 94.25226929 83.1008728 94.25226929 83.75 95.6875 C84.64084878 97.60987506 85.53277944 99.53174914 86.42578125 101.453125 C86.86229004 102.39865234 87.29879883 103.34417969 87.74853516 104.31835938 C89.41554076 107.89042133 91.15963164 111.41957982 92.9375 114.9375 C93.46214844 115.97777344 93.98679687 117.01804687 94.52734375 118.08984375 C95.56180045 120.1340619 96.61853958 122.16708276 97.69140625 124.19140625 C99 127 99 127 99 130 C99.66 130 100.32 130 101 130 C98.78080133 135.87407624 95.64974363 141.17255661 92.5625 146.625 C91.97662109 147.67429687 91.39074219 148.72359375 90.78710938 149.8046875 C90.21927734 150.81015625 89.65144531 151.815625 89.06640625 152.8515625 C88.2921228 154.22562256 88.2921228 154.22562256 87.50219727 155.62744141 C86.1596866 157.74779223 84.85558817 159.3289665 83 161 C82.59797363 160.19071045 82.19594727 159.3814209 81.78173828 158.54760742 C71.74759115 138.35200135 71.74759115 138.35200135 61.34912109 118.3425293 C58.91566437 113.75967103 56.55138228 109.15049604 54.25 104.5 C46.38351021 88.62130668 38.10429755 72.94151978 29.82421875 57.27539062 C27.42545928 52.73016839 25.05187123 48.1727296 22.6953125 43.60546875 C16.45125535 31.50513056 10.14781082 19.45277365 3.55517578 7.5378418 C2.85110596 6.26227417 2.85110596 6.26227417 2.1328125 4.9609375 C1.71918457 4.21634277 1.30555664 3.47174805 0.87939453 2.70458984 C0 1 0 1 0 0 Z " fill="#F8D4BA" transform="translate(150,128)"></path><path d="M0 0 C2.073944 0.08035277 4.1481872 0.15334029 6.22265625 0.21875 C11.28088151 0.39420543 16.32462956 0.6695366 21.375 1 C20.00025796 5.30265325 18.45147805 8.76115745 16 12.5625 C12.32674878 18.3630968 8.88811109 24.27885215 5.5 30.25 C0.66167209 38.76225123 -4.25005388 47.22507171 -9.23876953 55.64990234 C-10.83252407 58.35181872 -12.41440296 61.06053598 -13.99609375 63.76953125 C-15.16401476 65.7630488 -16.33198307 67.75653865 -17.5 69.75 C-18.047771 70.69157959 -18.59554199 71.63315918 -19.15991211 72.60327148 C-21.73511629 76.987198 -24.27452959 81.14776832 -27.625 85 C-29.12321059 81.62902617 -29.625 79.79557881 -29.625 76 C-28.965 76 -28.305 76 -27.625 76 C-27.3775 75.195625 -27.13 74.39125 -26.875 73.5625 C-26.25625 72.2940625 -26.25625 72.2940625 -25.625 71 C-24.29166667 70.66666667 -22.95833333 70.33333333 -21.625 70 C-20.32839566 67.50965614 -20.32839566 67.50965614 -19.625 65 C-20.615 64.505 -20.615 64.505 -21.625 64 C-21.625 63.34 -21.625 62.68 -21.625 62 C-19.975 62 -18.325 62 -16.625 62 C-16.295 61.01 -15.965 60.02 -15.625 59 C-14.965 58.01 -14.305 57.02 -13.625 56 C-13.54594936 53.66800612 -13.53701231 51.33167378 -13.625 49 C-12.635 48.67 -11.645 48.34 -10.625 48 C-10.13 47.01 -10.13 47.01 -9.625 46 C-8.635 46 -7.645 46 -6.625 46 C-6.295 44.02 -5.965 42.04 -5.625 40 C-4.14 39.505 -4.14 39.505 -2.625 39 C-1.83289664 37.31678037 -1.05163823 35.62586463 -0.37109375 33.89453125 C1.20651307 29.88856629 3.27286778 26.14944339 5.4375 22.4375 C7.5494558 18.69048165 9.0198263 15.0655211 10.375 11 C11.035 11 11.695 11 12.375 11 C12.705 8.36 13.035 5.72 13.375 3 C8.81177759 3.08095102 4.24988408 3.1937929 -0.3125 3.3125 C-1.60607422 3.33505859 -2.89964844 3.35761719 -4.23242188 3.38085938 C-6.10317383 3.4340332 -6.10317383 3.4340332 -8.01171875 3.48828125 C-9.15858154 3.51446533 -10.30544434 3.54064941 -11.48706055 3.56762695 C-16.13271263 4.20774598 -18.722746 5.81049779 -21.5390625 9.5234375 C-22.10367188 10.46445313 -22.66828125 11.40546875 -23.25 12.375 C-23.81976563 13.31085938 -24.38953125 14.24671875 -24.9765625 15.2109375 C-25.79253906 16.59152344 -25.79253906 16.59152344 -26.625 18 C-27.17027344 18.8765625 -27.71554687 19.753125 -28.27734375 20.65625 C-29.76657366 23.03980091 -29.76657366 23.03980091 -30.5625 26.125 C-31.625 29 -31.625 29 -33.625 30.4375 C-36.57435732 32.7416854 -36.70577883 35.44567812 -37.625 39 C-39.04009683 41.83019367 -40.01215496 43.57866904 -42.625 45.375 C-45.50325712 47.71358391 -46.22121697 50.60752435 -47.625 54 C-48.95833333 55.66666667 -50.29166667 57.33333333 -51.625 59 C-52.07875 60.155 -52.5325 61.31 -53 62.5 C-54.89884563 66.58982135 -57.12676403 68.23056319 -60.625 71 C-62.37822937 73.53188648 -62.37822937 73.53188648 -63.625 76 C-65.625 79 -65.625 79 -68.625 80 C-66.96311304 75.45633032 -64.7259575 71.33759865 -62.375 67.125 C-61.94316406 66.34906494 -61.51132813 65.57312988 -61.06640625 64.77368164 C-56.26672033 56.23558489 -51.13735552 47.90190872 -46.015625 39.5546875 C-43.54813785 35.52813445 -41.12012201 31.48230093 -38.74121094 27.40283203 C-37.93883211 26.02834965 -37.12849101 24.65836449 -36.29971313 23.29963684 C-34.21623956 19.85056369 -32.34601968 16.45868817 -30.76904297 12.74780273 C-24.07024741 -1.81850089 -14.70354902 -0.99098789 0 0 Z " fill="#E1B5BA" transform="translate(316.625,214)"></path><path d="M0 0 C6.44038383 -0.25403922 12.87947378 -0.428854 19.32373047 -0.54931641 C21.51432563 -0.59953712 23.70458667 -0.66773196 25.89404297 -0.75439453 C29.0473862 -0.87606234 32.1962969 -0.93246956 35.3515625 -0.9765625 C36.8144017 -1.05398178 36.8144017 -1.05398178 38.30679321 -1.13296509 C41.1895744 -1.13533053 43.29995146 -1.02271678 46 0 C48.71888129 3.02977275 50.3522751 6.30171596 52 10 C52.74249994 11.50699842 53.48580756 13.01359961 54.23046875 14.51953125 C54.88844214 15.94794106 55.54087865 17.37891555 56.1875 18.8125 C58.74539894 24.45787873 58.74539894 24.45787873 61.7578125 29.8671875 C63 32 63 32 62.6875 34.3125 C62.460625 34.869375 62.23375 35.42625 62 36 C60.02 36 58.04 36 56 36 C56.226875 35.484375 56.45375 34.96875 56.6875 34.4375 C57.15288793 30.80747413 55.4493863 28.30460076 54 25 C53.8125 22.0625 53.8125 22.0625 54 20 C52.02 20 50.04 20 48 20 C47.87625 18.824375 47.7525 17.64875 47.625 16.4375 C47.13564065 12.45879574 46.1944795 8.82233441 45 5 C44.01 5 43.02 5 42 5 C42 4.01 42 3.02 42 2 C41.01 2.33 40.02 2.66 39 3 C36.73906887 3.0603756 34.47633899 3.06041999 32.21484375 3.02734375 C30.86653897 3.01470355 29.51823155 3.00234215 28.16992188 2.99023438 C26.04768644 2.96535962 23.92558801 2.9373133 21.8034668 2.90405273 C19.75308334 2.87392446 17.70287735 2.85610446 15.65234375 2.83984375 C14.42507568 2.82300537 13.19780762 2.80616699 11.93334961 2.78881836 C8.8764057 2.68725708 8.8764057 2.68725708 7 5 C7.4495045 6.31554985 7.90989716 7.62738358 8.375 8.9375 C8.63023438 9.66839844 8.88546875 10.39929688 9.1484375 11.15234375 C9.85271413 13.18682116 9.85271413 13.18682116 12 14 C12.33 13.34 12.66 12.68 13 12 C13.20496094 12.68707031 13.40992187 13.37414062 13.62109375 14.08203125 C13.89050781 14.98308594 14.15992187 15.88414062 14.4375 16.8125 C14.70433594 17.70582031 14.97117187 18.59914062 15.24609375 19.51953125 C15.80387873 21.35473055 16.39344575 23.18033726 17 25 C16.67 25.66 16.34 26.32 16 27 C17.32 27.66 18.64 28.32 20 29 C20 29.99 20 30.98 20 32 C20.66 32 21.32 32 22 32 C22 33.32 22 34.64 22 36 C22.66 36 23.32 36 24 36 C24.98120464 39.05263664 24.98120464 40.94736336 24 44 C25.98 44 27.96 44 30 44 C29.01 45.32 28.02 46.64 27 48 C28.485 48.495 28.485 48.495 30 49 C30 49.99 30 50.98 30 52 C30.66 52.33 31.32 52.66 32 53 C31.773125 53.598125 31.54625 54.19625 31.3125 54.8125 C31.209375 55.534375 31.10625 56.25625 31 57 C32.22954016 58.81299492 32.22954016 58.81299492 34 60 C34.66 60 35.32 60 36 60 C36 61.32 36 62.64 36 64 C36.99 64.33 37.98 64.66 39 65 C39.66 68.3 40.32 71.6 41 75 C43.31 75.33 45.62 75.66 48 76 C48 81.28 48 86.56 48 92 C49.98 92 51.96 92 54 92 C54.495 96.455 54.495 96.455 55 101 C54.01 100.67 53.02 100.34 52 100 C52 99.01 52 98.02 52 97 C51.34 97 50.68 97 50 97 C50 96.34 50 95.68 50 95 C49.01 95 48.02 95 47 95 C46.23841146 93.47682292 45.47683986 91.95363736 44.71533203 90.43041992 C44.01474462 89.0294115 43.31388712 87.62853811 42.61279297 86.2277832 C40.52597702 82.05727929 38.44478805 77.88407664 36.37109375 73.70703125 C31.96975213 64.85459302 27.52428287 56.03762996 22.875 47.3125 C19.12005879 40.26275298 15.63873706 33.11788571 12.27099609 25.87597656 C9.5414234 20.04067529 6.60505959 14.34779992 3.47412109 8.71777344 C1.88089232 5.82174391 0.71802542 3.21854027 0 0 Z M39 60 C39.33 60 39.66 60 40 60 C40 61.65 40 63.3 40 65 C39.67 65 39.34 65 39 65 C39 63.35 39 61.7 39 60 Z " fill="#1AECEF" transform="translate(88,128)"></path><path d="M0 0 C3.16514779 2.67689724 4.76966497 6.09815407 6.58984375 9.73828125 C7.10039558 10.7405928 7.10039558 10.7405928 7.6212616 11.76315308 C8.35140559 13.19736042 9.07907455 14.63282996 9.80450439 16.06942749 C11.71782462 19.85736451 13.64957307 23.63586162 15.58203125 27.4140625 C15.96498352 28.16344589 16.34793579 28.91282928 16.74249268 29.68492126 C19.76349149 35.57944314 22.90657676 41.3983689 26.125 47.1875 C31.01084255 56.01693381 35.60150073 64.98129872 40.125 74 C40.62075531 74.98388199 40.62075531 74.98388199 41.12652588 75.98764038 C42.07082497 77.86445182 43.00910921 79.7441393 43.9453125 81.625 C44.48687988 82.71039063 45.02844727 83.79578125 45.58642578 84.9140625 C46.95372106 87.89896964 48.02572642 90.86727241 49 94 C47.35 93.67 45.7 93.34 44 93 C44 93.66 44 94.32 44 95 C42.68 95 41.36 95 40 95 C40 90.33333333 40 85.66666667 40 81 C39.67 80.34 39.34 79.68 39 79 C36.97536745 78.34786708 36.97536745 78.34786708 35 78 C35.99 76.515 35.99 76.515 37 75 C35.68 75 34.36 75 33 75 C31.40861915 70.82262526 30.78721942 67.46839215 31 63 C29.68 63 28.36 63 27 63 C26.33333333 61.33333333 25.66666667 59.66666667 25 58 C24.62875 57.175 24.2575 56.35 23.875 55.5 C22.94311777 52.83747934 22.84006584 50.79884788 23 48 C21.515 47.505 21.515 47.505 20 47 C20 46.34 20 45.68 20 45 C19.34 45 18.68 45 18 45 C17 43 17 43 17.125 39.625 C16.99448483 35.84005994 16.6834917 34.58028048 14 32 C13.34 32 12.68 32 12 32 C11.7525 31.34 11.505 30.68 11.25 30 C9.94679395 26.87230549 8.41931664 23.94071133 6.8046875 20.96484375 C6 19 6 19 6 15 C4.35 15 2.7 15 1 15 C1.66 12.36 2.32 9.72 3 7 C2.34 7 1.68 7 1 7 C0.67 7.66 0.34 8.32 0 9 C-1 8 -1 8 -1.125 4.5 C-1 1 -1 1 0 0 Z " fill="#0FE2E7" transform="translate(152,165)"></path><path d="M0 0 C0.66 0 1.32 0 2 0 C2 0.66 2 1.32 2 2 C2.66 2 3.32 2 4 2 C6.45563859 5.53611957 8 8.66909813 8 13 C9.32 13.33 10.64 13.66 12 14 C12 16.33333333 12 18.66666667 12 21 C12.66 21 13.32 21 14 21 C14.33 20.34 14.66 19.68 15 19 C15.10957031 19.68707031 15.21914062 20.37414062 15.33203125 21.08203125 C15.49058594 21.98308594 15.64914063 22.88414062 15.8125 23.8125 C15.96332031 24.70582031 16.11414063 25.59914062 16.26953125 26.51953125 C17.06810156 29.23125395 17.93283207 30.15470088 20 32 C20.70211894 33.65204456 21.36971413 35.31923769 22 37 C22.66 37.99 23.32 38.98 24 40 C24.125 42.6875 24.125 42.6875 24 45 C24.66 45 25.32 45 26 45 C26.33 46.65 26.66 48.3 27 50 C27.99 50 28.98 50 30 50 C30 50.99 30 51.98 30 53 C30.66 53 31.32 53 32 53 C31.7525 53.70125 31.505 54.4025 31.25 55.125 C30.89811987 59.17162148 32.65249145 60.78055971 35 64 C35.350625 64.928125 35.70125 65.85625 36.0625 66.8125 C36.371875 67.534375 36.68125 68.25625 37 69 C37.99 69.33 38.98 69.66 40 70 C39.773125 70.598125 39.54625 71.19625 39.3125 71.8125 C39.209375 72.534375 39.10625 73.25625 39 74 C40.22954016 75.81299492 40.22954016 75.81299492 42 77 C42.66 77 43.32 77 44 77 C44.84454356 80.37817425 45.10844919 82.67465243 44 86 C45.32 86 46.64 86 48 86 C48.495 89.465 48.495 89.465 49 93 C50.65 93 52.3 93 54 93 C54 95.64 54 98.28 54 101 C54.66 101 55.32 101 56 101 C55.855625 101.825 55.71125 102.65 55.5625 103.5 C56.20659012 108.652721 59.3043371 111.50817462 63 115 C63.33 115 63.66 115 64 115 C64.04898438 115.67546875 64.09796875 116.3509375 64.1484375 117.046875 C64.26058594 118.38492188 64.26058594 118.38492188 64.375 119.75 C64.44460937 120.63171875 64.51421875 121.5134375 64.5859375 122.421875 C64.99850055 124.99066382 65.71160957 126.75841015 67 129 C66.34 129.33 65.68 129.66 65 130 C62.95669115 126.08418801 60.91566533 122.16719018 58.875 118.25 C58.30523437 117.15816406 57.73546875 116.06632812 57.1484375 114.94140625 C53.83796575 108.58379574 50.59165396 102.19919761 47.39794922 95.78222656 C45.36660497 91.7394045 43.24981607 87.74423937 41.125 83.75 C37.07572849 76.09082516 33.15054436 68.38143965 29.30371094 60.61914062 C27.68225075 57.36164534 26.04812852 54.11055695 24.4140625 50.859375 C23.41976903 48.87880494 22.42570591 46.89811945 21.43173218 44.91738892 C20.7821883 43.62390359 20.13200829 42.33073746 19.48110962 41.03793335 C15.3750753 32.88018475 11.41059585 24.67537304 7.60546875 16.37255859 C5.60327317 12.16660822 3.37993155 8.11533735 1.06640625 4.07421875 C0 2 0 2 0 0 Z " fill="#17A2DC" transform="translate(136,223)"></path><path d="M0 0 C13.2 0 26.4 0 40 0 C38.42744729 4.71765812 37.21947678 7.53941891 34.625 11.5625 C30.95174878 17.3630968 27.51311109 23.27885215 24.125 29.25 C19.28667209 37.76225123 14.37494612 46.22507171 9.38623047 54.64990234 C7.79247593 57.35181872 6.21059704 60.06053598 4.62890625 62.76953125 C3.46098524 64.7630488 2.29301693 66.75653865 1.125 68.75 C0.577229 69.69157959 0.02945801 70.63315918 -0.53491211 71.60327148 C-3.11011629 75.987198 -5.64952959 80.14776832 -9 84 C-10.49821059 80.62902617 -11 78.79557881 -11 75 C-10.34 75 -9.68 75 -9 75 C-8.7525 74.195625 -8.505 73.39125 -8.25 72.5625 C-7.63125 71.2940625 -7.63125 71.2940625 -7 70 C-5.66666667 69.66666667 -4.33333333 69.33333333 -3 69 C-1.70339566 66.50965614 -1.70339566 66.50965614 -1 64 C-1.66 63.67 -2.32 63.34 -3 63 C-3 62.34 -3 61.68 -3 61 C-1.35 61 0.3 61 2 61 C2.33 60.01 2.66 59.02 3 58 C3.66 57.01 4.32 56.02 5 55 C5.07905064 52.66800612 5.08798769 50.33167378 5 48 C6.485 47.505 6.485 47.505 8 47 C8.33 46.34 8.66 45.68 9 45 C9.99 45 10.98 45 12 45 C12.33 43.02 12.66 41.04 13 39 C14.485 38.505 14.485 38.505 16 38 C16.79210336 36.31678037 17.57336177 34.62586463 18.25390625 32.89453125 C19.83151307 28.88856629 21.89786778 25.14944339 24.0625 21.4375 C26.1744558 17.69048165 27.6448263 14.0655211 29 10 C29.66 10 30.32 10 31 10 C31.33 7.36 31.66 4.72 32 2 C21.44 1.67 10.88 1.34 0 1 C0 0.67 0 0.34 0 0 Z " fill="#EDC896" transform="translate(298,215)"></path><path d="M0 0 C0.99 0.33 1.98 0.66 3 1 C-24.35667321 51.08324403 -24.35667321 51.08324403 -38 72 C-38.66 71.34 -39.32 70.68 -40 70 C-40 69.01 -40 68.02 -40 67 C-39.34 67 -38.68 67 -38 67 C-38 66.34 -38 65.68 -38 65 C-38.66 65 -39.32 65 -40 65 C-40 63.02 -40 61.04 -40 59 C-37.36 59 -34.72 59 -32 59 C-32 57.02 -32 55.04 -32 53 C-31.01 53.33 -30.02 53.66 -29 54 C-29.0825 53.278125 -29.165 52.55625 -29.25 51.8125 C-28.92256852 48.12889581 -27.53906064 46.61373889 -25 44 C-24.34 44 -23.68 44 -23 44 C-23.02320313 43.41992188 -23.04640625 42.83984375 -23.0703125 42.2421875 C-23.18250423 37.38588834 -22.87514915 33.57067605 -21 29 C-19.35 28.67 -17.7 28.34 -16 28 C-15.34 25.03 -14.68 22.06 -14 19 C-12.35 19 -10.7 19 -9 19 C-9 18.01 -9 17.02 -9 16 C-8.34 16 -7.68 16 -7 16 C-7.495 13.525 -7.495 13.525 -8 11 C-7.34 11 -6.68 11 -6 11 C-5.896875 10.236875 -5.79375 9.47375 -5.6875 8.6875 C-4.95635961 5.82940576 -4.23048087 4.84257115 -2 3 C-1.34 3.33 -0.68 3.66 0 4 C0 2.68 0 1.36 0 0 Z " fill="#12CDAB" transform="translate(319,137)"></path><path d="M0 0 C0.66 0 1.32 0 2 0 C2 0.66 2 1.32 2 2 C4.31 2 6.62 2 9 2 C8.01 3.32 7.02 4.64 6 6 C6.99 6.33 7.98 6.66 9 7 C9 7.99 9 8.98 9 10 C9.66 10.33 10.32 10.66 11 11 C10.773125 11.598125 10.54625 12.19625 10.3125 12.8125 C10.1578125 13.8953125 10.1578125 13.8953125 10 15 C11.22954016 16.81299492 11.22954016 16.81299492 13 18 C13.66 18 14.32 18 15 18 C15 19.32 15 20.64 15 22 C15.99 22.33 16.98 22.66 18 23 C18.66 26.3 19.32 29.6 20 33 C23.465 33.495 23.465 33.495 27 34 C27 39.28 27 44.56 27 50 C28.98 50 30.96 50 33 50 C33.495 54.455 33.495 54.455 34 59 C33.01 58.67 32.02 58.34 31 58 C31 57.01 31 56.02 31 55 C30.34 55 29.68 55 29 55 C29 54.34 29 53.68 29 53 C28.01 53 27.02 53 26 53 C22.421875 45.84375 18.84375 38.6875 15.265625 31.53125 C14.80043457 30.60094971 14.33524414 29.67064941 13.85595703 28.7121582 C12.91136059 26.82280274 11.96702406 24.93331732 11.02294922 23.04370117 C8.93534889 18.86593409 6.84556999 14.68937818 4.7421875 10.51953125 C4.41162354 9.86291504 4.08105957 9.20629883 3.74047852 8.52978516 C2.87657966 6.81471524 2.01063706 5.10067521 1.14453125 3.38671875 C0 1 0 1 0 0 Z M18 18 C18.33 18 18.66 18 19 18 C19 19.65 19 21.3 19 23 C18.67 23 18.34 23 18 23 C18 21.35 18 19.7 18 18 Z " fill="#1DDBE9" transform="translate(109,170)"></path><path d="M0 0 C6.44038383 -0.25403922 12.87947378 -0.428854 19.32373047 -0.54931641 C21.51432563 -0.59953712 23.70458667 -0.66773196 25.89404297 -0.75439453 C29.0473862 -0.87606234 32.1962969 -0.93246956 35.3515625 -0.9765625 C36.8144017 -1.05398178 36.8144017 -1.05398178 38.30679321 -1.13296509 C41.1895744 -1.13533053 43.29995146 -1.02271678 46 0 C48.71888129 3.02977275 50.3522751 6.30171596 52 10 C52.74249994 11.50699842 53.48580756 13.01359961 54.23046875 14.51953125 C54.88844214 15.94794106 55.54087865 17.37891555 56.1875 18.8125 C58.74539894 24.45787873 58.74539894 24.45787873 61.7578125 29.8671875 C63 32 63 32 62.6875 34.3125 C62.460625 34.869375 62.23375 35.42625 62 36 C60.02 36 58.04 36 56 36 C56.226875 35.484375 56.45375 34.96875 56.6875 34.4375 C57.15288793 30.80747413 55.4493863 28.30460076 54 25 C53.8125 22.0625 53.8125 22.0625 54 20 C52.02 20 50.04 20 48 20 C47.87625 18.824375 47.7525 17.64875 47.625 16.4375 C46.92532475 10.86966178 45.51667783 6.03335566 43 1 C29.8 1.33 16.6 1.66 3 2 C3 2.66 3 3.32 3 4 C3.66 4 4.32 4 5 4 C5 5.98 5 7.96 5 10 C2.34424386 6.86137911 1.22792806 3.89733689 0 0 Z " fill="#05EAEC" transform="translate(88,128)"></path><path d="M0 0 C17.16 0 34.32 0 52 0 C50.43155066 3.92112336 48.80288902 7.30396946 46.7421875 10.95703125 C46.11699219 12.06884766 45.49179687 13.18066406 44.84765625 14.32617188 C44.1901709 15.48831901 43.53261797 16.65042791 42.875 17.8125 C42.20935359 18.99398189 41.54398616 20.175621 40.87890625 21.35742188 C39.25534066 24.23983905 37.62894985 27.12062331 36 30 C35.41015625 28.1484375 35.41015625 28.1484375 35 26 C35.474375 25.21625 35.94875 24.4325 36.4375 23.625 C38.32064323 20.46131938 38.07550597 18.62428668 38 15 C38.75 12.1875 38.75 12.1875 40 10 C42.125 9.1875 42.125 9.1875 44 9 C44 8.34 44 7.68 44 7 C44.66 7 45.32 7 46 7 C46 5.68 46 4.36 46 3 C22.735 2.505 22.735 2.505 -1 2 C-0.67 1.34 -0.34 0.68 0 0 Z " fill="#23B09D" transform="translate(289,103)"></path><path d="M0 0 C0.66 0 1.32 0 2 0 C2 0.66 2 1.32 2 2 C2.66 2 3.32 2 4 2 C4.66 2.66 5.32 3.32 6 4 C6.66 4 7.32 4 8 4 C8.84454356 7.37817425 9.10844919 9.67465243 8 13 C9.32 13 10.64 13 12 13 C12.33 15.31 12.66 17.62 13 20 C14.65 20 16.3 20 18 20 C18 22.64 18 25.28 18 28 C18.66 28 19.32 28 20 28 C19.7834375 29.2375 19.7834375 29.2375 19.5625 30.5 C20.20659012 35.652721 23.3043371 38.50817462 27 42 C27.33 42 27.66 42 28 42 C28.04898438 42.67546875 28.09796875 43.3509375 28.1484375 44.046875 C28.22320312 44.93890625 28.29796875 45.8309375 28.375 46.75 C28.44460937 47.63171875 28.51421875 48.5134375 28.5859375 49.421875 C28.99850055 51.99066382 29.71160957 53.75841015 31 56 C30.01 56.495 30.01 56.495 29 57 C26.95669115 53.08418801 24.91566533 49.16719018 22.875 45.25 C22.30523437 44.15816406 21.73546875 43.06632812 21.1484375 41.94140625 C18.35880645 36.58404663 15.59658051 31.21658317 12.90625 25.80859375 C9.79969027 19.56561343 6.54251206 13.40852189 3.26171875 7.25585938 C2.83761719 6.45599609 2.41351563 5.65613281 1.9765625 4.83203125 C1.59580566 4.11764893 1.21504883 3.4032666 0.82275391 2.66723633 C0 1 0 1 0 0 Z " fill="#2A3895" transform="translate(172,296)"></path><path d="M0 0 C1.9375 0.3125 1.9375 0.3125 4 1 C4.33 1.99 4.66 2.98 5 4 C5.66 4.33 6.32 4.66 7 5 C8.72664863 8.45329726 9.21952523 11.15830842 9 15 C12.58327753 16.00217064 12.58327753 16.00217064 16 15 C15.98839844 15.66386719 15.97679687 16.32773438 15.96484375 17.01171875 C15.88106591 23.56306787 15.88106591 23.56306787 17 30 C17.99 30.33 18.98 30.66 20 31 C20 30.01 20 29.02 20 28 C22.375 25.3125 22.375 25.3125 25 23 C25.66 23 26.32 23 27 23 C25.45454854 28.47932789 22.84456788 33.11429181 20 38 C17 37 17 37 15.97265625 35.1796875 C15.67230469 34.41914063 15.37195313 33.65859375 15.0625 32.875 C13.83625849 29.91704338 12.5759787 27.12664362 10.9375 24.375 C9.37391387 21.65133384 8.11063237 19.00080715 6.92578125 16.1015625 C5.19596257 12.17480112 3.1731065 8.38677829 1.20703125 4.57421875 C0 2 0 2 0 0 Z " fill="#22D1C9" transform="translate(232,221)"></path><path d="M0 0 C3.13745128 2.65669831 4.7204461 6.02399487 6.50390625 9.64453125 C6.98983498 10.61564095 6.98983498 10.61564095 7.48558044 11.60636902 C8.1683187 12.97418125 8.84811215 14.34346683 9.52514648 15.71411133 C10.55546708 17.79827362 11.59627539 19.87693404 12.63867188 21.95507812 C13.30271657 23.28874739 13.96614807 24.62272219 14.62890625 25.95703125 C14.93727921 26.57286575 15.24565216 27.18870026 15.56336975 27.82319641 C17.35969163 31.47478651 18.80113543 35.11194092 20 39 C18.35 38.67 16.7 38.34 15 38 C15 38.66 15 39.32 15 40 C13.68 40 12.36 40 11 40 C11 35.33333333 11 30.66666667 11 26 C10.67 25.34 10.34 24.68 10 24 C7.97536745 23.34786708 7.97536745 23.34786708 6 23 C6.66 22.01 7.32 21.02 8 20 C6.68 20 5.36 20 4 20 C2.20061666 15.4415622 1.6154282 11.2062226 1.24609375 6.3671875 C1.01633281 4.15710606 0.59579029 2.13696682 0 0 Z " fill="#13CEDC" transform="translate(181,220)"></path><path d="M0 0 C1.59311922 4.48969963 0.02769401 7.33247401 -1.75390625 11.54296875 C-2.86453345 13.73288883 -3.94441808 15.36285443 -5.5625 17.1875 C-8.18721847 19.90861061 -8.18721847 19.90861061 -9.4375 23.5625 C-11.28804756 27.63370464 -13.530381 29.25321829 -17 32 C-18.75322937 34.53188648 -18.75322937 34.53188648 -20 37 C-22 40 -22 40 -25 41 C-23.24171744 36.08076004 -20.67990193 31.66125444 -18.125 27.125 C-17.47337891 25.95904297 -17.47337891 25.95904297 -16.80859375 24.76953125 C-14.23151037 20.16483272 -11.62458554 15.57776547 -9 11 C-8.01 11 -7.02 11 -6 11 C-5.7525 10.29875 -5.505 9.5975 -5.25 8.875 C-3.83911974 5.62997541 -2.02104602 2.89683263 0 0 Z " fill="#DA9BB0" transform="translate(273,253)"></path><path d="M0 0 C0.99 0.33 1.98 0.66 3 1 C2.34 2.98 1.68 4.96 1 7 C-0.32 7 -1.64 7 -3 7 C-3.061875 7.969375 -3.12375 8.93875 -3.1875 9.9375 C-3.88095429 14.79168006 -6.05705594 19.10516029 -9 23 C-11.109375 24.15234375 -11.109375 24.15234375 -13 25 C-14.10546369 26.74992715 -14.10546369 26.74992715 -14 29 C-13.04987876 31.02417134 -12.05008653 33.02583732 -11 35 C-11 35.99 -11 36.98 -11 38 C-10.34 38.33 -9.68 38.66 -9 39 C-9 39.66 -9 40.32 -9 41 C-11.74637817 40.62118922 -12.80049058 40.22167713 -14.6875 38.125 C-16 36 -16 36 -17 33 C-17.66 32.67 -18.32 32.34 -19 32 C-17.96075924 27.1177335 -15.49753801 23.2781357 -13 19 C-12.47962158 18.10087891 -12.47962158 18.10087891 -11.94873047 17.18359375 C-10.78620679 15.18016964 -9.61331385 13.18314957 -8.4375 11.1875 C-7.87385742 10.21816528 -7.87385742 10.21816528 -7.29882812 9.22924805 C-5.19234958 5.69001362 -3.09316232 2.78454748 0 0 Z " fill="#18E0D4" transform="translate(245,181)"></path><path d="M0 0 C-1.78764609 4.98924953 -4.36944386 9.50768694 -6.9375 14.125 C-7.38029297 14.93582031 -7.82308594 15.74664062 -8.27929688 16.58203125 C-8.71177734 17.36191406 -9.14425781 18.14179688 -9.58984375 18.9453125 C-9.98034912 19.65187988 -10.37085449 20.35844727 -10.77319336 21.08642578 C-12.00383251 23.00597795 -13.32976978 24.45699376 -15 26 C-16.66987892 22.68910974 -18.33536259 19.37602825 -20 16.0625 C-20.47695312 15.11697266 -20.95390625 14.17144531 -21.4453125 13.19726562 C-22.12207031 11.84858398 -22.12207031 11.84858398 -22.8125 10.47265625 C-23.23144531 9.64000244 -23.65039062 8.80734863 -24.08203125 7.94946289 C-25 6 -25 6 -25 5 C-23.02 4.67 -21.04 4.34 -19 4 C-18.80664062 4.60328125 -18.61328125 5.2065625 -18.4140625 5.828125 C-18.15367187 6.62734375 -17.89328125 7.4265625 -17.625 8.25 C-17.36976563 9.03890625 -17.11453125 9.8278125 -16.8515625 10.640625 C-16.04826333 12.86627958 -15.10288338 14.90931672 -14 17 C-11.68333005 14.87528271 -10.25041422 12.88372366 -8.875 10.0625 C-8.54242188 9.39347656 -8.20984375 8.72445313 -7.8671875 8.03515625 C-6.9361637 6.01730713 -6.9361637 6.01730713 -6.50390625 3.82421875 C-6 2 -6 2 -4.0625 0.75 C-2 0 -2 0 0 0 Z " fill="#C56F92" transform="translate(248,263)"></path><path d="M0 0 C2.475 0.495 2.475 0.495 5 1 C5.26554688 1.84304687 5.53109375 2.68609375 5.8046875 3.5546875 C6.15789062 4.65039062 6.51109375 5.74609375 6.875 6.875 C7.22304687 7.96554688 7.57109375 9.05609375 7.9296875 10.1796875 C8.81175231 13.08522723 8.81175231 13.08522723 11 15 C11 16.32 11 17.64 11 19 C11.66 19 12.32 19 13 19 C13.33 18.34 13.66 17.68 14 17 C14 17.99 14 18.98 14 20 C14.31669821 22.33564933 14.64820803 24.6693782 15 27 C17.31 27 19.62 27 22 27 C21.814375 27.680625 21.62875 28.36125 21.4375 29.0625 C20.83377513 32.1255869 20.83377513 32.1255869 21.5625 35.6875 C21.706875 36.780625 21.85125 37.87375 22 39 C21.34 39.66 20.68 40.32 20 41 C14.61120561 30.87961762 9.24613243 20.75705881 4.375 10.375 C3.88 9.32034546 3.88 9.32034546 3.375 8.24438477 C2.1118265 5.52066691 0.95030494 2.85091482 0 0 Z " fill="#EBBABD" transform="translate(193,209)"></path><path d="M0 0 C1.98 0 3.96 0 6 0 C4.55085484 2.66423594 3.09944353 5.32718877 1.64453125 7.98828125 C0.65774022 9.79544487 -0.3252952 11.60467786 -1.30078125 13.41796875 C-3.87468764 18.1549626 -6.68730542 22.62761966 -9.765625 27.0546875 C-11.16095396 29.08073878 -11.16095396 29.08073878 -12 32 C-12.66 32 -13.32 32 -14 32 C-14 32.66 -14 33.32 -14 34 C-14.66 34 -15.32 34 -16 34 C-15.67 32.68 -15.34 31.36 -15 30 C-14.34 30 -13.68 30 -13 30 C-10.68656871 23.67662114 -9.83605296 17.72182854 -10 11 C-9.34 10.67 -8.68 10.34 -8 10 C-7.67 9.01 -7.34 8.02 -7 7 C-6.34 7.66 -5.68 8.32 -5 9 C-4.34 9 -3.68 9 -3 9 C-0.83801833 4.66231898 -0.83801833 4.66231898 0 0 Z M-9 15 C-8 17 -8 17 -8 17 Z " fill="#691387" transform="translate(273,316)"></path><path d="M0 0 C3.96580464 3.44730721 6.01785699 7.37160143 8.36328125 11.9765625 C8.75952194 12.74302094 9.15576263 13.50947937 9.56401062 14.29916382 C10.39550287 15.91266463 11.22313538 17.52815968 12.04711914 19.14550781 C13.3146653 21.62924287 14.59883015 24.10387037 15.88476562 26.578125 C16.69111345 28.14791948 17.49648673 29.71821501 18.30078125 31.2890625 C18.68712234 32.03177399 19.07346344 32.77448547 19.47151184 33.53970337 C20.37623018 35.32984471 21.19689944 37.16202536 22 39 C21.67 39.66 21.34 40.32 21 41 C20.67 40.01 20.34 39.02 20 38 C19.34 37.67 18.68 37.34 18 37 C15.875 35.625 15.875 35.625 14 34 C14 33.01 14 32.02 14 31 C13.34 30.54625 12.68 30.0925 12 29.625 C11.34 29.08875 10.68 28.5525 10 28 C9.75 25.3125 9.75 25.3125 10 23 C8.68 22.34 7.36 21.68 6 21 C6 20.34 6 19.68 6 19 C6.66 19 7.32 19 8 19 C6.86983745 15.47307328 6.86983745 15.47307328 5 12 C2.42267086 10.94832473 2.42267086 10.94832473 0 11 C-0.19491452 9.54263913 -0.38069358 8.08405407 -0.5625 6.625 C-0.66691406 5.81289063 -0.77132812 5.00078125 -0.87890625 4.1640625 C-1 2 -1 2 0 0 Z " fill="#1389C1" transform="translate(201,260)"></path><path d="M0 0 C0.66 0.66 1.32 1.32 2 2 C-0.2432803 5.89973927 -2.49579091 9.79406941 -4.75 13.6875 C-5.70132812 15.34168945 -5.70132812 15.34168945 -6.671875 17.02929688 C-7.6 18.6293457 -7.6 18.6293457 -8.546875 20.26171875 C-9.11245117 21.24100342 -9.67802734 22.22028809 -10.26074219 23.22924805 C-11.99933032 25.99893315 -13.90831288 28.48957475 -16 31 C-17.49821059 27.62902617 -18 25.79557881 -18 22 C-17.34 22 -16.68 22 -16 22 C-15.7525 21.195625 -15.505 20.39125 -15.25 19.5625 C-14.8375 18.716875 -14.425 17.87125 -14 17 C-12.66666667 16.66666667 -11.33333333 16.33333333 -10 16 C-8.70339566 13.50965614 -8.70339566 13.50965614 -8 11 C-8.66 10.67 -9.32 10.34 -10 10 C-10 9.34 -10 8.68 -10 8 C-8.35 8 -6.7 8 -5 8 C-4.67 7.01 -4.34 6.02 -4 5 C-2.70055256 3.30678061 -1.37073786 1.63604196 0 0 Z " fill="#CE848D" transform="translate(305,268)"></path><path d="M0 0 C3.63 0.66 7.26 1.32 11 2 C11 7.28 11 12.56 11 18 C12.98 18 14.96 18 17 18 C17.33 20.97 17.66 23.94 18 27 C17.01 26.67 16.02 26.34 15 26 C15 25.01 15 24.02 15 23 C14.34 23 13.68 23 13 23 C13 22.34 13 21.68 13 21 C12.01 21 11.02 21 10 21 C8.705826 18.43873936 7.41459216 15.87606642 6.125 13.3125 C5.76019531 12.59126953 5.39539063 11.87003906 5.01953125 11.12695312 C4.48779297 10.06831055 4.48779297 10.06831055 3.9453125 8.98828125 C3.62062988 8.34415283 3.29594727 7.70002441 2.96142578 7.03637695 C1.87499374 4.73522671 0.94508726 2.36271816 0 0 Z " fill="#18C0E5" transform="translate(125,202)"></path><path d="M0 0 C13.2 0 26.4 0 40 0 C38.5596225 4.32113251 37.53895482 7.18960642 35.1875 10.875 C34.46626953 12.04675781 34.46626953 12.04675781 33.73046875 13.2421875 C32 15 32 15 29.30078125 15.2578125 C28.16189453 15.13019531 28.16189453 15.13019531 27 15 C27.66 13.35 28.32 11.7 29 10 C29.66 10 30.32 10 31 10 C31.33 7.36 31.66 4.72 32 2 C21.44 1.67 10.88 1.34 0 1 C0 0.67 0 0.34 0 0 Z " fill="#CCAD8A" transform="translate(298,215)"></path><path d="M0 0 C4.85752685 4.33707755 7.94851148 9.84553443 10 16 C10 16.99 10 17.98 10 19 C10.66 19 11.32 19 12 19 C11.01 21.475 11.01 21.475 10 24 C9.34 22.68 8.68 21.36 8 20 C5.69 20.33 3.38 20.66 1 21 C1.33 18.36 1.66 15.72 2 13 C1.34 13 0.68 13 0 13 C0.185625 12.030625 0.37125 11.06125 0.5625 10.0625 C0.706875 9.051875 0.85125 8.04125 1 7 C0.67 6.67 0.34 6.34 0 6 C-0.04080783 4.00041636 -0.04254356 1.99954746 0 0 Z " fill="#CCADAB" transform="translate(239,239)"></path><path d="M0 0 C10.56 0 21.12 0 32 0 C33.32 2.64 34.64 5.28 36 8 C35.34 8 34.68 8 34 8 C33.505 6.02 33.505 6.02 33 4 C19.21458951 0.86508351 19.21458951 0.86508351 6 4 C7.0209375 5.6396875 7.0209375 5.6396875 8.0625 7.3125 C9.22265625 9.17578125 9.22265625 9.17578125 10 11 C9.67 11.99 9.34 12.98 9 14 C4.04648887 9.96380575 3.21070641 6.42141282 0 0 Z " fill="#F1E5D3" transform="translate(150,128)"></path><path d="M0 0 C0 3.85512397 -0.83776117 6.06970796 -2.92724609 9.2890625 C-7.56034949 13.11341923 -14.59860478 11.7792728 -20.3125 11.5 C-21.73492649 11.45984499 -23.15746125 11.42334764 -24.58007812 11.390625 C-28.05564395 11.30272435 -31.52713582 11.16484613 -35 11 C-35.66 9.02 -36.32 7.04 -37 5 C-33.04 5.33 -29.08 5.66 -25 6 C-25 6.66 -25 7.32 -25 8 C-27.64 8.33 -30.28 8.66 -33 9 C-30.35409986 9.02684679 -27.70846904 9.04676357 -25.0625 9.0625 C-24.30775391 9.07087891 -23.55300781 9.07925781 -22.77539062 9.08789062 C-20.85005687 9.09652441 -18.92464419 9.05224333 -17 9 C-16.67 8.67 -16.34 8.34 -16 8 C-13.66702567 7.95907063 -11.33294775 7.95758277 -9 8 C-9 7.01 -9 6.02 -9 5 C-7.35 5 -5.7 5 -4 5 C-3.71125 4.360625 -3.4225 3.72125 -3.125 3.0625 C-2 1 -2 1 0 0 Z " fill="#330D6F" transform="translate(248,367)"></path><path d="M0 0 C1.5 1.375 1.5 1.375 3 3 C3 3.66 3 4.32 3 5 C3.66 5 4.32 5 5 5 C5.33 6.65 5.66 8.3 6 10 C6.99 10 7.98 10 9 10 C9 10.99 9 11.98 9 13 C9.66 13 10.32 13 11 13 C10.7525 13.70125 10.505 14.4025 10.25 15.125 C9.89811987 19.17162148 11.65249145 20.78055971 14 24 C14.350625 24.928125 14.70125 25.85625 15.0625 26.8125 C15.5265625 27.8953125 15.5265625 27.8953125 16 29 C16.99 29.33 17.98 29.66 19 30 C18.67 31.32 18.34 32.64 18 34 C14.68527239 32.96368826 13.92492637 31.87446451 12.10546875 28.83203125 C11.45341134 27.49833856 10.81481464 26.15800786 10.1875 24.8125 C9.84783203 24.10867188 9.50816406 23.40484375 9.15820312 22.6796875 C8.09160331 20.4594185 7.04402323 18.23096378 6 16 C5.30862746 14.53514034 4.61722195 13.07029624 3.92578125 11.60546875 C2.26721087 8.07786624 0.62834434 4.54164893 -1 1 C-0.67 0.67 -0.34 0.34 0 0 Z " fill="#177BC5" transform="translate(157,263)"></path><path d="M0 0 C9.9 0 19.8 0 30 0 C30 0.33 30 0.66 30 1 C28.9941687 1.02187378 28.9941687 1.02187378 27.96801758 1.04418945 C24.91561178 1.118883 21.86427415 1.21547299 18.8125 1.3125 C17.75740234 1.33505859 16.70230469 1.35761719 15.61523438 1.38085938 C14.59365234 1.41630859 13.57207031 1.45175781 12.51953125 1.48828125 C11.58214111 1.51446533 10.64475098 1.54064941 9.67895508 1.56762695 C5.23843103 2.28431046 2.68143258 4.06866329 0.05078125 7.6640625 C-0.52285156 8.64117187 -1.09648437 9.61828125 -1.6875 10.625 C-4.81360671 15.90680336 -4.81360671 15.90680336 -7 17 C-6.25 10.375 -6.25 10.375 -4 7 C-3.34 7 -2.68 7 -2 7 C-1.855625 6.21625 -1.71125 5.4325 -1.5625 4.625 C-1 2 -1 2 0 0 Z M-9 17 C-8.34 17.33 -7.68 17.66 -7 18 C-7.99 20.97 -8.98 23.94 -10 27 C-10.99 27 -11.98 27 -13 27 C-12.67 25.68 -12.34 24.36 -12 23 C-11.34 23 -10.68 23 -10 23 C-9.67 21.02 -9.34 19.04 -9 17 Z " fill="#F5CBB2" transform="translate(295,216)"></path><path d="M0 0 C0.99 0.66 1.98 1.32 3 2 C1.54785715 4.482985 0.08869598 6.96133947 -1.375 9.4375 C-1.7875 10.14455078 -2.2 10.85160156 -2.625 11.58007812 C-3.22441406 12.59038086 -3.22441406 12.59038086 -3.8359375 13.62109375 C-4.20251465 14.2442749 -4.5690918 14.86745605 -4.94677734 15.50952148 C-6 17 -6 17 -8 18 C-9.65 14.7 -11.3 11.4 -13 8 C-12.34 7.01 -11.68 6.02 -11 5 C-8.0625 4.8125 -8.0625 4.8125 -5 5 C-4.01 5 -3.02 5 -2 5 C-1.67 5 -1.34 5 -1 5 C-0.67 3.35 -0.34 1.7 0 0 Z " fill="#132022" transform="translate(233,193)"></path><path d="M0 0 C0.66 0.99 1.32 1.98 2 3 C-3.21105528 12.99497487 -3.21105528 12.99497487 -7 16 C-7.66 16 -8.32 16 -9 16 C-9 17.32 -9 18.64 -9 20 C-9.66 20 -10.32 20 -11 20 C-11 20.66 -11 21.32 -11 22 C-11.66 22 -12.32 22 -13 22 C-13.103125 22.556875 -13.20625 23.11375 -13.3125 23.6875 C-14.13133577 26.44176578 -15.45853781 28.58727657 -17 31 C-18.06546953 27.8035914 -18.07427838 25.34252724 -18 22 C-17.01 21.67 -16.02 21.34 -15 21 C-12.59984019 18.89986016 -11.00275118 17.00465584 -9.375 14.25 C-8.92125 13.5075 -8.4675 12.765 -8 12 C-7.34 12 -6.68 12 -6 12 C-5.83177734 11.14148438 -5.83177734 11.14148438 -5.66015625 10.265625 C-4.92776966 7.75210888 -3.86145147 5.94069457 -2.4375 3.75 C-1.98246094 3.04359375 -1.52742188 2.3371875 -1.05859375 1.609375 C-0.70925781 1.07828125 -0.35992187 0.5471875 0 0 Z " fill="#27112D" transform="translate(267,336)"></path><path d="M0 0 C13.53 0 27.06 0 41 0 C41.495 1.485 41.495 1.485 42 3 C41.34 3.33 40.68 3.66 40 4 C40 3.01 40 2.02 40 1 C39.01 1.33 38.02 1.66 37 2 C34.73906887 2.0603756 32.47633899 2.06041999 30.21484375 2.02734375 C28.86653897 2.01470355 27.51823155 2.00234215 26.16992188 1.99023438 C24.04768644 1.96535962 21.92558801 1.9373133 19.8034668 1.90405273 C17.75308334 1.87392446 15.70287735 1.85610446 13.65234375 1.83984375 C12.42507568 1.82300537 11.19780762 1.80616699 9.93334961 1.78881836 C6.8764057 1.68725708 6.8764057 1.68725708 5 4 C5.66 5.98 6.32 7.96 7 10 C6.01 10.495 6.01 10.495 5 11 C5 10.34 5 9.68 5 9 C4.34 9 3.68 9 3 9 C3 7.02 3 5.04 3 3 C2.34 3 1.68 3 1 3 C0.67 2.01 0.34 1.02 0 0 Z " fill="#07F9F1" transform="translate(90,129)"></path><path d="M0 0 C6.47755859 -0.1521034 12.95465716 -0.2571941 19.43359375 -0.32958984 C21.63754484 -0.35976762 23.8413758 -0.40071558 26.04492188 -0.45263672 C29.21254083 -0.52540634 32.37857292 -0.55944647 35.546875 -0.5859375 C36.53242371 -0.61690521 37.51797241 -0.64787292 38.53338623 -0.67977905 C41.15827827 -0.68107114 43.45112906 -0.62854342 46 0 C50 4.38940007 50 4.38940007 50 8 C49.34 8 48.68 8 48 8 C47.731875 7.360625 47.46375 6.72125 47.1875 6.0625 C46.11332248 3.66868314 46.11332248 3.66868314 43 3 C43 2.34 43 1.68 43 1 C29.8 1.33 16.6 1.66 3 2 C3 2.66 3 3.32 3 4 C3.66 4 4.32 4 5 4 C5 5.98 5 7.96 5 10 C2.34424386 6.86137911 1.22792806 3.89733689 0 0 Z " fill="#27EEDB" transform="translate(88,128)"></path><path d="M0 0 C2 2 2 2 2 5 C1.71372955 7.67356157 1.34968449 10.33365575 1 13 C-1.03834076 13.50958519 -3.06668764 14.01372981 -5.125 14.4375 C-7.22082328 14.90475673 -7.22082328 14.90475673 -9 17 C-9.33 16.01 -9.66 15.02 -10 14 C-9.01 13.67 -8.02 13.34 -7 13 C-7 10.69 -7 8.38 -7 6 C-6.01 6 -5.02 6 -4 6 C-1.78831775 3.05763218 -1.78831775 3.05763218 0 0 Z " fill="#702C7C" transform="translate(238,310)"></path><path d="M0 0 C1.2077558 3.62326739 0.54311128 4.64146369 -1 8 C-1.66 8 -2.32 8 -3 8 C-3.99 11.3 -4.98 14.6 -6 18 C-6.66 18 -7.32 18 -8 18 C-8.33 19.98 -8.66 21.96 -9 24 C-10.32 24 -11.64 24 -13 24 C-13.99 26.475 -13.99 26.475 -15 29 C-15.33 28.34 -15.66 27.68 -16 27 C-15.29077148 25.26342773 -15.29077148 25.26342773 -14.12109375 23.18359375 C-13.69683105 22.42288574 -13.27256836 21.66217773 -12.83544922 20.87841797 C-12.37412598 20.07291504 -11.91280273 19.26741211 -11.4375 18.4375 C-10.97875488 17.6242627 -10.52000977 16.81102539 -10.04736328 15.97314453 C-6.92789363 10.49073975 -3.6860219 5.12446947 0 0 Z " fill="#E0D1CC" transform="translate(294,215)"></path><path d="M0 0 C0.66 0 1.32 0 2 0 C1.55869594 6.10604339 -0.44811172 10.22459587 -3.5625 15.4375 C-3.98724609 16.16904297 -4.41199219 16.90058594 -4.84960938 17.65429688 C-5.88959514 19.44213758 -6.94340177 21.22192662 -8 23 C-8.58984375 21.1484375 -8.58984375 21.1484375 -9 19 C-8.525625 18.21625 -8.05125 17.4325 -7.5625 16.625 C-5.67935677 13.46131938 -5.92449403 11.62428668 -6 8 C-5.25 5.1875 -5.25 5.1875 -4 3 C-1.875 2.1875 -1.875 2.1875 0 2 C0 1.34 0 0.68 0 0 Z " fill="#13CBAE" transform="translate(333,110)"></path><path d="M0 0 C1.65 0 3.3 0 5 0 C5.86375896 1.61992165 6.71575854 3.24611861 7.5625 4.875 C8.03816406 5.77992188 8.51382813 6.68484375 9.00390625 7.6171875 C9.49697266 8.79667969 9.49697266 8.79667969 10 10 C9.67 10.66 9.34 11.32 9 12 C7.68 11.67 6.36 11.34 5 11 C5 11.66 5 12.32 5 13 C3.68 13 2.36 13 1 13 C1.01160156 12.31292969 1.02320313 11.62585938 1.03515625 10.91796875 C1.04417969 10.01691406 1.05320313 9.11585938 1.0625 8.1875 C1.07410156 7.29417969 1.08570313 6.40085938 1.09765625 5.48046875 C1.11009967 2.86586209 1.11009967 2.86586209 0 0 Z " fill="#06CDE6" transform="translate(191,247)"></path><path d="M0 0 C-1.54545146 5.47932789 -4.15543212 10.11429181 -7 15 C-10 14 -10 14 -11.1328125 12.07421875 C-11.46023437 11.28660156 -11.78765625 10.49898437 -12.125 9.6875 C-12.62386719 8.51767578 -12.62386719 8.51767578 -13.1328125 7.32421875 C-13.91550386 5.22646488 -14.51059398 3.18235134 -15 1 C-13.68 1.33 -12.36 1.66 -11 2 C-10.67 3.65 -10.34 5.3 -10 7 C-9.01 7.33 -8.02 7.66 -7 8 C-7 7.01 -7 6.02 -7 5 C-2.58139535 0 -2.58139535 0 0 0 Z " fill="#14C9BA" transform="translate(259,244)"></path><path d="M0 0 C0.66 0 1.32 0 2 0 C2 0.66 2 1.32 2 2 C2.66 2 3.32 2 4 2 C4.66 2.66 5.32 3.32 6 4 C6.66 4 7.32 4 8 4 C8.84454356 7.37817425 9.10844919 9.67465243 8 13 C9.32 13 10.64 13 12 13 C12.33 15.64 12.66 18.28 13 21 C9.7644435 19.65681916 8.40965947 18.56373246 6.89453125 15.41015625 C6.37922852 14.35731445 6.37922852 14.35731445 5.85351562 13.28320312 C5.50998047 12.55037109 5.16644531 11.81753906 4.8125 11.0625 C4.45736328 10.33353516 4.10222656 9.60457031 3.73632812 8.85351562 C2.318604 5.91853076 1.03243911 3.09731733 0 0 Z " fill="#274DA5" transform="translate(172,296)"></path><path d="M0 0 C1.11029455 3.72741743 0.83932006 5.50529188 -1 9 C-1.99 9.66 -2.98 10.32 -4 11 C-6.59837935 15.05041488 -8.31419245 18.19934714 -9 23 C-10.51107431 26.02214861 -13.22966467 27.15310978 -16 29 C-14.34892841 24.45293118 -12.0735352 20.3766548 -9.6875 16.1875 C-9.28668213 15.47916016 -8.88586426 14.77082031 -8.47290039 14.04101562 C-5.76648562 9.28166621 -2.97087639 4.60006667 0 0 Z " fill="#19E0C6" transform="translate(258,156)"></path><path d="M0 0 C2.475 0.495 2.475 0.495 5 1 C5.26554688 1.84304687 5.53109375 2.68609375 5.8046875 3.5546875 C6.15789062 4.65039062 6.51109375 5.74609375 6.875 6.875 C7.22304687 7.96554688 7.57109375 9.05609375 7.9296875 10.1796875 C8.81175231 13.08522723 8.81175231 13.08522723 11 15 C11 16.32 11 17.64 11 19 C11.66 19 12.32 19 13 19 C13.33 18.34 13.66 17.68 14 17 C14 17.99 14 18.98 14 20 C12.68 20.33 11.36 20.66 10 21 C8.705826 18.43873936 7.41459216 15.87606642 6.125 13.3125 C5.76019531 12.59126953 5.39539063 11.87003906 5.01953125 11.12695312 C3.1820758 7.46874636 1.43861498 3.8388305 0 0 Z " fill="#ECCACE" transform="translate(193,209)"></path><path d="M0 0 C0.66 0 1.32 0 2 0 C0.3003494 4.73474097 -2.13659027 8.96167111 -4.625 13.3125 C-5.04523438 14.05306641 -5.46546875 14.79363281 -5.8984375 15.55664062 C-6.92948495 17.37269011 -7.96436046 19.18656533 -9 21 C-9.58984375 19.125 -9.58984375 19.125 -10 17 C-9.02727325 15.64664105 -8.0260734 14.31337396 -7 13 C-7 11.68 -7 10.36 -7 9 C-6.67 8.67 -6.34 8.34 -6 8 C-6.33 8 -6.66 8 -7 8 C-7 6.35 -7 4.7 -7 3 C-4.69 3 -2.38 3 0 3 C0 2.01 0 1.02 0 0 Z " fill="#14C9AC" transform="translate(278,209)"></path><path d="M0 0 C0.99 0.33 1.98 0.66 3 1 C2.34 2.98 1.68 4.96 1 7 C-0.32 7 -1.64 7 -3 7 C-3.144375 8.134375 -3.28875 9.26875 -3.4375 10.4375 C-4 14 -4 14 -5 15 C-6.66617115 15.04063832 -8.33388095 15.042721 -10 15 C-9.09238938 13.24528614 -8.17349289 11.49640736 -7.25 9.75 C-6.73953125 8.77546875 -6.2290625 7.8009375 -5.703125 6.796875 C-4.05180119 4.08506801 -2.33508701 2.13203597 0 0 Z " fill="#10E2D1" transform="translate(245,181)"></path><path d="M0 0 C0.99 0 1.98 0 3 0 C3.33 0.99 3.66 1.98 4 3 C2.67909475 4.67653359 1.34192868 6.34024611 0 8 C-1.78058037 11.279487 -3.40243661 14.62809365 -5 18 C-5.66 18 -6.32 18 -7 18 C-7 18.66 -7 19.32 -7 20 C-7.66 20 -8.32 20 -9 20 C-8.67 18.68 -8.34 17.36 -8 16 C-7.34 16 -6.68 16 -6 16 C-4.90277905 12.78671007 -3.88905939 9.59090652 -3 6.3125 C-2 3 -2 3 0 0 Z " fill="#540D7A" transform="translate(266,330)"></path><path d="M0 0 C2.74792483 3.40219265 6 7.48464588 6 12 C0.25 13.125 0.25 13.125 -2 12 C-2 9.36 -2 6.72 -2 4 C-1.34 4 -0.68 4 0 4 C0 2.68 0 1.36 0 0 Z " fill="#131221" transform="translate(155,263)"></path><path d="M0 0 C3.37462715 0.54723683 5.08235 1.0549 8 3 C8.44140625 5.2421875 8.44140625 5.2421875 8.5625 7.875 C8.7388967 11.45638745 9.19344264 13.88024231 11 17 C10.34 17.33 9.68 17.66 9 18 C7.49667622 15.18926431 5.99790265 12.37612794 4.5 9.5625 C4.07074219 8.76005859 3.64148438 7.95761719 3.19921875 7.13085938 C2.79316406 6.36708984 2.38710937 5.60332031 1.96875 4.81640625 C1.59169922 4.10943604 1.21464844 3.40246582 0.82617188 2.67407227 C0 1 0 1 0 0 Z " fill="#332D8E" transform="translate(192,335)"></path><path d="M0 0 C2 3 2 3 4 12 C13.57 12 23.14 12 33 12 C33 12.33 33 12.66 33 13 C23.1 13 13.2 13 3 13 C2.34 11.35 1.68 9.7 1 8 C0.34 7.67 -0.32 7.34 -1 7 C-1.04254356 5.00045254 -1.04080783 2.99958364 -1 1 C-0.67 0.67 -0.34 0.34 0 0 Z " fill="#1E0D30" transform="translate(209,366)"></path><path d="M0 0 C0.66 0 1.32 0 2 0 C2.33 0.99 2.66 1.98 3 3 C3.78375 3.5775 4.5675 4.155 5.375 4.75 C8.59061594 7.50624223 9.50439354 10.08293546 11 14 C11.99 15.485 11.99 15.485 13 17 C12.34 17.66 11.68 18.32 11 19 C7.33603434 15.78187087 5.31953049 12.15140834 3.25 7.8125 C2.93417969 7.17119141 2.61835938 6.52988281 2.29296875 5.86914062 C0 1.169051 0 1.169051 0 0 Z " fill="#1A8FD3" transform="translate(147,246)"></path><path d="M0 0 C0 4.24645065 -1.81750806 6.38524772 -4 10 C-8.29 10 -12.58 10 -17 10 C-16.67 9.34 -16.34 8.68 -16 8 C-13.69 8 -11.38 8 -9 8 C-9 7.01 -9 6.02 -9 5 C-7.35 5 -5.7 5 -4 5 C-3.71125 4.360625 -3.4225 3.72125 -3.125 3.0625 C-2 1 -2 1 0 0 Z " fill="#38067F" transform="translate(248,367)"></path><path d="M0 0 C0.66 0 1.32 0 2 0 C2 1.32 2 2.64 2 4 C2.99 4.33 3.98 4.66 5 5 C5.73046875 7.06640625 5.73046875 7.06640625 6.1875 9.5625 C6.34605469 10.38878906 6.50460938 11.21507812 6.66796875 12.06640625 C6.77753906 12.70449219 6.88710937 13.34257812 7 14 C6.01 14.495 6.01 14.495 5 15 C4.34 14.67 3.68 14.34 3 14 C2.40644386 11.35139573 2.25790731 8.70802678 2 6 C1.34 6 0.68 6 0 6 C-0.38218767 4.34385343 -0.71395102 2.67542976 -1 1 C-0.67 0.67 -0.34 0.34 0 0 Z M5 0 C5.33 0 5.66 0 6 0 C6 1.65 6 3.3 6 5 C5.67 5 5.34 5 5 5 C5 3.35 5 1.7 5 0 Z " fill="#09E4F4" transform="translate(122,188)"></path><path d="M0 0 C2.25884327 2.09215091 3.7528025 4.08415743 5.19140625 6.80078125 C5.77245117 7.89616211 5.77245117 7.89616211 6.36523438 9.01367188 C6.76033203 9.77228516 7.15542969 10.53089844 7.5625 11.3125 C8.16094727 12.43301758 8.16094727 12.43301758 8.77148438 13.57617188 C10.90854827 17.63980423 12.69866025 21.57544484 14 26 C13.01 26 12.02 26 11 26 C10.35309078 24.3962669 9.70751236 22.79199694 9.0625 21.1875 C8.70285156 20.29417969 8.34320313 19.40085938 7.97265625 18.48046875 C7.26386514 16.6729091 6.6139753 14.84192591 6 13 C5.01 12.67 4.02 12.34 3 12 C2.814375 10.9790625 2.814375 10.9790625 2.625 9.9375 C1.90899123 6.5722588 0.97054875 3.29986575 0 0 Z " fill="#E2D2D0" transform="translate(190,144)"></path><path d="M0 0 C0.99 0.33 1.98 0.66 3 1 C3 2.98 3 4.96 3 7 C2.34 7 1.68 7 1 7 C1 8.32 1 9.64 1 11 C-0.175625 11.2165625 -0.175625 11.2165625 -1.375 11.4375 C-3.96421018 11.87798925 -3.96421018 11.87798925 -6 13 C-4.31326082 8.50202887 -2.18326108 4.27113698 0 0 Z " fill="#8A427D" transform="translate(245,297)"></path><path d="M0 0 C0.59765625 1.7421875 0.59765625 1.7421875 1.0625 3.875 C1.61000321 6.32745241 2.20237213 8.60711639 3 11 C0.25 10.5625 0.25 10.5625 -3 9 C-4.72708482 6.13722607 -5.89807915 3.15019724 -7 0 C-2.25 -1.125 -2.25 -1.125 0 0 Z " fill="#CD8C9E" transform="translate(230,268)"></path><path d="M0 0 C0.66 0 1.32 0 2 0 C0.54694849 4.11697928 -1.32645794 7.54012204 -4 11 C-6.25 11.875 -6.25 11.875 -8 12 C-8 9.69 -8 7.38 -8 5 C-7.01 4.67 -6.02 4.34 -5 4 C-4.67 3.34 -4.34 2.68 -4 2 C-3.01 2 -2.02 2 -1 2 C-0.67 1.34 -0.34 0.68 0 0 Z " fill="#F4B799" transform="translate(311,258)"></path><path d="M0 0 C2 2 2 2 2 5 C2.33 5.825 2.66 6.65 3 7.5 C4 10 4 10 4 13 C4.66 13.33 5.32 13.66 6 14 C6 14.66 6 15.32 6 16 C3.39393335 15.64054253 2.22352791 15.23212513 0.375 13.3125 C-1.28944467 10.51320669 -2.34609952 8.20411233 -3 5 C-1.625 2.125 -1.625 2.125 0 0 Z " fill="#14F2ED" transform="translate(230,206)"></path><path d="M0 0 C4.0641136 1.35470453 4.83841193 3.37411034 7 7 C7.350625 7.928125 7.70125 8.85625 8.0625 9.8125 C8.371875 10.534375 8.68125 11.25625 9 12 C9.99 12.33 10.98 12.66 12 13 C11.67 14.32 11.34 15.64 11 17 C7.49823224 15.96186531 6.8894059 14.79994156 5.078125 11.5234375 C4.45580997 10.14639999 3.84680785 8.76328264 3.25 7.375 C2.93417969 6.66859375 2.61835938 5.9621875 2.29296875 5.234375 C1.51715158 3.49466376 0.757028 1.74796913 0 0 Z " fill="#1E62B5" transform="translate(164,280)"></path><path d="M0 0 C2.31 0.66 4.62 1.32 7 2 C7 4.31 7 6.62 7 9 C7.66 9 8.32 9 9 9 C9.33 11.31 9.66 13.62 10 16 C9.34 16 8.68 16 8 16 C5.36 10.72 2.72 5.44 0 0 Z " fill="#D595A9" transform="translate(214,251)"></path><path d="M0 0 C0.66 0 1.32 0 2 0 C0.34826752 5.63090618 -1.47430746 10.22325526 -5 15 C-5.99 16.485 -5.99 16.485 -7 18 C-7.99 18.33 -8.98 18.66 -10 19 C-8.40376856 14.60616294 -6.21975667 10.71004193 -3.875 6.6875 C-3.50246094 6.04232422 -3.12992188 5.39714844 -2.74609375 4.73242188 C-1.83367787 3.15324055 -0.91724491 1.57638136 0 0 Z " fill="#AC6B8D" transform="translate(258,275)"></path><path d="M0 0 C0.94356071 3.4258512 1.19930768 5.57340662 0 9 C-1.64639965 10.35827971 -3.31295807 11.69254251 -5 13 C-5.86965506 15.12946603 -5.86965506 15.12946603 -6 17 C-6.66 17 -7.32 17 -8 17 C-8 17.66 -8 18.32 -8 19 C-8.66 19 -9.32 19 -10 19 C-8.40376856 14.60616294 -6.21975667 10.71004193 -3.875 6.6875 C-3.50246094 6.04232422 -3.12992187 5.39714844 -2.74609375 4.73242188 C-1.83367787 3.15324055 -0.91724491 1.57638136 0 0 Z " fill="#1BE2C6" transform="translate(277,123)"></path><path d="M0 0 C0.66 0.33 1.32 0.66 2 1 C0.35821735 5.77609498 -2.26546702 9.79382904 -5 14 C-5.99 13.67 -6.98 13.34 -8 13 C-7.6875 11.0625 -7.6875 11.0625 -7 9 C-6.01 8.67 -5.02 8.34 -4 8 C-3.67 6.02 -3.34 4.04 -3 2 C-2.34 2 -1.68 2 -1 2 C-0.67 1.34 -0.34 0.68 0 0 Z " fill="#9F4B80" transform="translate(287,298)"></path><path d="M0 0 C0.33 0.99 0.66 1.98 1 3 C0.67 3.66 0.34 4.32 0 5 C0.66 5.66 1.32 6.32 2 7 C-0.64 11.29 -3.28 15.58 -6 20 C-7 16 -7 16 -7 13 C-6.34 12.67 -5.68 12.34 -5 12 C-4.34 12.33 -3.68 12.66 -3 13 C-2.95101563 12.22914063 -2.90203125 11.45828125 -2.8515625 10.6640625 C-2.73941406 9.15972656 -2.73941406 9.15972656 -2.625 7.625 C-2.55539062 6.62726563 -2.48578125 5.62953125 -2.4140625 4.6015625 C-2 2 -2 2 0 0 Z " fill="#0ED1B2" transform="translate(266,224)"></path><path d="M0 0 C3.12270126 2.51830747 3.94523098 3.7261549 4.75 7.75 C4.8325 8.8225 4.915 9.895 5 11 C3.35 11 1.7 11 0 11 C-0.19491452 9.54263913 -0.38069358 8.08405407 -0.5625 6.625 C-0.66691406 5.81289063 -0.77132812 5.00078125 -0.87890625 4.1640625 C-1 2 -1 2 0 0 Z " fill="#0CA9D1" transform="translate(201,260)"></path><path d="M0 0 C2.14909962 2.76854598 4.01778828 5.57834526 5.75 8.625 C6.19859375 9.40101563 6.6471875 10.17703125 7.109375 10.9765625 C7.40328125 11.64429688 7.6971875 12.31203125 8 13 C7.67 13.66 7.34 14.32 7 15 C5.35 15 3.7 15 2 15 C1.92652344 14.09507812 1.92652344 14.09507812 1.8515625 13.171875 C1.77679688 12.37265625 1.70203125 11.5734375 1.625 10.75 C1.55539063 9.96109375 1.48578125 9.1721875 1.4140625 8.359375 C1.1104336 5.95629275 1.1104336 5.95629275 -0.1015625 3.828125 C-0.39804688 3.22484375 -0.69453125 2.6215625 -1 2 C-0.67 1.34 -0.34 0.68 0 0 Z " fill="#38438F" transform="translate(223,301)"></path><path d="M0 0 C0.66 0.33 1.32 0.66 2 1 C0.62712658 4.69876091 -1.06355453 7.9514476 -3.125 11.3125 C-3.66382813 12.19550781 -4.20265625 13.07851562 -4.7578125 13.98828125 C-5.16773438 14.65214844 -5.57765625 15.31601563 -6 16 C-6.66 15.67 -7.32 15.34 -8 15 C-7.6875 12.125 -7.6875 12.125 -7 9 C-6.01 8.34 -5.02 7.68 -4 7 C-3.67 6.01 -3.34 5.02 -3 4 C-2.01 4 -1.02 4 0 4 C0 2.68 0 1.36 0 0 Z " fill="#10201C" transform="translate(250,165)"></path><path d="M0 0 C1.32 0 2.64 0 4 0 C4 2.31 4 4.62 4 7 C2.35 7 0.7 7 -1 7 C-1 7.66 -1 8.32 -1 9 C-1.66 9 -2.32 9 -3 9 C-2.25 2.25 -2.25 2.25 0 0 Z " fill="#07D7AB" transform="translate(299,165)"></path><path d="M0 0 C0.33 0.66 0.66 1.32 1 2 C1.99 2.33 2.98 2.66 4 3 C2.68 5.64 1.36 8.28 0 11 C-2.00240521 8.74729413 -2.94368221 7.39422456 -3.375 4.375 C-3.25125 3.59125 -3.1275 2.8075 -3 2 C-2.01 1.34 -1.02 0.68 0 0 Z " fill="#C57388" transform="translate(290,288)"></path><path d="M0 0 C0.66 0 1.32 0 2 0 C2.33 1.32 2.66 2.64 3 4 C3.99 3.67 4.98 3.34 6 3 C6.99 3.66 7.98 4.32 9 5 C8.67 8.3 8.34 11.6 8 15 C5.49970542 11.6662739 3.96505437 9.00174506 2.3125 5.25 C1.87550781 4.26515625 1.43851563 3.2803125 0.98828125 2.265625 C0.66214844 1.51796875 0.33601562 0.7703125 0 0 Z " fill="#141C21" transform="translate(164,186)"></path><path d="M0 0 C0.88901072 3.16092701 0.88810398 4.84229696 0 8 C0 9.32 0 10.64 0 12 C-0.66 12 -1.32 12 -2 12 C-2 12.66 -2 13.32 -2 14 C-3.65 14 -5.3 14 -7 14 C-5.23570801 9.02790438 -2.6060834 4.56561939 0 0 Z " fill="#201223" transform="translate(254,358)"></path><path d="M0 0 C2.67158839 2.67158839 2.9263784 4.24529849 3 8 C0.5625 10.875 0.5625 10.875 -2 13 C-3.05899758 9.82300727 -2.96817951 9.02723312 -2.125 5.9375 C-1.94195312 5.24527344 -1.75890625 4.55304688 -1.5703125 3.83984375 C-1 2 -1 2 0 0 Z " fill="#C07B9E" transform="translate(261,269)"></path><path d="M0 0 C1.485 0.99 1.485 0.99 3 2 C3.1875 4.625 3.1875 4.625 3 7 C3.66 7.33 4.32 7.66 5 8 C5 10.31 5 12.62 5 15 C2.22295969 13.61147985 1.96617263 12.03211518 0.8125 9.1875 C0.44769531 8.31480469 0.08289063 7.44210937 -0.29296875 6.54296875 C-1.04115271 3.85198664 -0.9458895 2.584628 0 0 Z " fill="#342187" transform="translate(203,352)"></path><path d="M0 0 C0.66 0 1.32 0 2 0 C2 0.66 2 1.32 2 2 C2.66 2 3.32 2 4 2 C6.45563859 5.53611957 8 8.66909813 8 13 C9.32 13.33 10.64 13.66 12 14 C10.35 14.33 8.7 14.66 7 15 C5.82823482 12.87767021 4.66245215 10.75242209 3.5 8.625 C3.16613281 8.02171875 2.83226562 7.4184375 2.48828125 6.796875 C0 2.2265625 0 2.2265625 0 0 Z " fill="#21A8E2" transform="translate(136,223)"></path><path d="M0 0 C1 3 1 3 0.00390625 5.26171875 C-0.47175781 6.06222656 -0.94742187 6.86273438 -1.4375 7.6875 C-2.14712891 8.89986328 -2.14712891 8.89986328 -2.87109375 10.13671875 C-3.24363281 10.75160156 -3.61617188 11.36648437 -4 12 C-3.38125 11.34 -2.7625 10.68 -2.125 10 C0 8 0 8 2 8 C1.67 9.65 1.34 11.3 1 13 C-1.64 13 -4.28 13 -7 13 C-3.535 6.565 -3.535 6.565 0 0 Z " fill="#0E1917" transform="translate(292,189)"></path><path d="M0 0 C0.66 0.66 1.32 1.32 2 2 C-0.97 6.455 -0.97 6.455 -4 11 C-6.97 10.505 -6.97 10.505 -10 10 C-10 9.34 -10 8.68 -10 8 C-8.35 8 -6.7 8 -5 8 C-4.67 7.01 -4.34 6.02 -4 5 C-2.70055256 3.30678061 -1.37073786 1.63604196 0 0 Z " fill="#DD9B93" transform="translate(305,268)"></path><path d="M0 0 C0.33 0.66 0.66 1.32 1 2 C0.67 2.99 0.34 3.98 0 5 C-0.66 5 -1.32 5 -2 5 C-2.103125 5.556875 -2.20625 6.11375 -2.3125 6.6875 C-3.13133577 9.44176578 -4.45853781 11.58727657 -6 14 C-7.06546953 10.8035914 -7.07427838 8.34252724 -7 5 C-6.01 4.67 -5.02 4.34 -4 4 C-2.62804426 2.70644173 -1.28817344 1.37701298 0 0 Z " fill="#380B70" transform="translate(256,353)"></path><path d="M0 0 C1.33332095 2.6666419 0.67102033 4.16680303 0 7 C-0.99 7 -1.98 7 -3 7 C-2.67 7.99 -2.34 8.98 -2 10 C-2.99 10.99 -3.98 11.98 -5 13 C-6.23076923 7.58461538 -6.23076923 7.58461538 -5.0625 4.625 C-4.711875 4.08875 -4.36125 3.5525 -4 3 C-3.01 3 -2.02 3 -1 3 C-0.67 2.01 -0.34 1.02 0 0 Z " fill="#CB8FB2" transform="translate(268,261)"></path><path d="M0 0 C2.31459868 1.81817001 2.95377187 2.75615543 3.51171875 5.69921875 C3.56972656 6.68535156 3.62773437 7.67148438 3.6875 8.6875 C3.75324219 9.68136719 3.81898438 10.67523438 3.88671875 11.69921875 C3.92410156 12.45847656 3.96148437 13.21773437 4 14 C3.01 14.495 3.01 14.495 2 15 C2 14.34 2 13.68 2 13 C1.34 13 0.68 13 0 13 C0.185625 12.030625 0.37125 11.06125 0.5625 10.0625 C0.706875 9.051875 0.85125 8.04125 1 7 C0.67 6.67 0.34 6.34 0 6 C-0.04080783 4.00041636 -0.04254356 1.99954746 0 0 Z " fill="#F0B6A8" transform="translate(239,239)"></path><path d="M0 0 C2.67438936 2.38335287 4.15158012 4.87036148 5.75 8.0625 C6.19859375 8.94035156 6.6471875 9.81820312 7.109375 10.72265625 C7.40328125 11.47417969 7.6971875 12.22570312 8 13 C7.67 13.66 7.34 14.32 7 15 C6.01 14.34 5.02 13.68 4 13 C4.33 12.34 4.66 11.68 5 11 C4.34 11 3.68 11 3 11 C2.67 11.99 2.34 12.98 2 14 C1.93941406 13.32453125 1.87882813 12.6490625 1.81640625 11.953125 C1.73261719 11.06109375 1.64882812 10.1690625 1.5625 9.25 C1.48128906 8.36828125 1.40007812 7.4865625 1.31640625 6.578125 C1.03761535 4.30649548 0.61209423 2.20148177 0 0 Z " fill="#1BC1CD" transform="translate(181,220)"></path><path d="M0 0 C3 1 3 1 4.625 3.1875 C6.08385732 6.17152633 6.61808685 8.71554694 7 12 C7.66 12 8.32 12 9 12 C9.33 14.31 9.66 16.62 10 19 C7.33351629 15.66894651 5.3330319 12.12802152 3.3125 8.375 C2.68988281 7.22773438 2.06726563 6.08046875 1.42578125 4.8984375 C0 2 0 2 0 0 Z " fill="#2AD2EA" transform="translate(115,182)"></path><path d="M0 0 C1.231394 2.46278801 1.07159196 4.2795055 1 7 C0.34 7 -0.32 7 -1 7 C-1.061875 7.78375 -1.12375 8.5675 -1.1875 9.375 C-1.5896875 10.674375 -1.5896875 10.674375 -2 12 C-4.5625 13.3125 -4.5625 13.3125 -7 14 C-5.23570801 9.02790438 -2.6060834 4.56561939 0 0 Z " fill="#102221" transform="translate(319,142)"></path><path d="M0 0 C1.9375 0.3125 1.9375 0.3125 4 1 C4.33 1.99 4.66 2.98 5 4 C5.66 4.33 6.32 4.66 7 5 C8.3749149 7.90259811 9 9.76138705 9 13 C8.34 13 7.68 13 7 13 C6.731875 12.030625 6.46375 11.06125 6.1875 10.0625 C5.795625 9.051875 5.40375 8.04125 5 7 C4.01 6.67 3.02 6.34 2 6 C0.8125 2.9375 0.8125 2.9375 0 0 Z " fill="#1FDEE0" transform="translate(232,221)"></path><path d="M0 0 C1.89453125 0.25 1.89453125 0.25 4 1 C5.01171875 2.8125 5.01171875 2.8125 5.6875 5 C6.43174903 7.74600618 6.43174903 7.74600618 8 10 C8.04063832 11.66617115 8.042721 13.33388095 8 15 C5.84821844 12.23612808 4.01629579 9.43466931 2.3125 6.375 C1.87550781 5.59898437 1.43851563 4.82296875 0.98828125 4.0234375 C0 2 0 2 0 0 Z " fill="#E7CCD0" transform="translate(183,190)"></path><path d="M0 0 C0.99 0.33 1.98 0.66 3 1 C2.06915029 2.77433812 1.13005387 4.54435149 0.1875 6.3125 C-0.33457031 7.29863281 -0.85664063 8.28476563 -1.39453125 9.30078125 C-2.7719876 11.61665068 -3.99530591 13.23611001 -6 15 C-5.49287967 11.28111761 -4.88391785 8.26545761 -3 5 C-2.34 5 -1.68 5 -1 5 C-0.67 3.35 -0.34 1.7 0 0 Z " fill="#152728" transform="translate(258,151)"></path><path d="M0 0 C3.375 4.5 3.375 4.5 4 8 C3.34 8 2.68 8 2 8 C2.33 9.32 2.66 10.64 3 12 C0.525 11.01 0.525 11.01 -2 10 C-1.34 6.7 -0.68 3.4 0 0 Z " fill="#10151E" transform="translate(91,136)"></path><path d="M0 0 C2.96659857 3.55991828 5.381348 7.65222543 7 12 C6.67 12.66 6.34 13.32 6 14 C5.67 13.01 5.34 12.02 5 11 C4.34 10.67 3.68 10.34 3 10 C0.875 8.8125 0.875 8.8125 -1 7 C-1.3125 3.875 -1.3125 3.875 -1 1 C-0.67 0.67 -0.34 0.34 0 0 Z " fill="#215CA6" transform="translate(216,287)"></path><path d="M0 0 C0.66 0 1.32 0 2 0 C4.31 4.95 6.62 9.9 9 15 C8.34 15 7.68 15 7 15 C3 8.375 3 8.375 3 5 C1.35 5.66 -0.3 6.32 -2 7 C-1.67 6.21625 -1.34 5.4325 -1 4.625 C0.11866511 2.15667503 0.11866511 2.15667503 0 0 Z " fill="#2E101C" transform="translate(218,261)"></path><path d="M0 0 C3.54611778 1.77305889 4.56681117 5.95570602 6.1875 9.4375 C6.56841797 10.22705078 6.94933594 11.01660156 7.34179688 11.83007812 C7.87450195 12.96413086 7.87450195 12.96413086 8.41796875 14.12109375 C8.90946411 15.16414673 8.90946411 15.16414673 9.41088867 16.22827148 C10 18 10 18 9 20 C8.71125 19.360625 8.4225 18.72125 8.125 18.0625 C7.17176549 15.84793921 7.17176549 15.84793921 5 15 C4.0625 12.9375 4.0625 12.9375 3 10 C2.60748047 8.99066406 2.60748047 8.99066406 2.20703125 7.9609375 C0 2.26203052 0 2.26203052 0 0 Z " fill="#C7D6CC" transform="translate(227,213)"></path><path d="M0 0 C2.64 0.33 5.28 0.66 8 1 C7.34 3.97 6.68 6.94 6 10 C5.34 8.68 4.68 7.36 4 6 C3.29875 5.29875 2.5975 4.5975 1.875 3.875 C1.25625 3.25625 0.6375 2.6375 0 2 C0 1.34 0 0.68 0 0 Z " fill="#05D8EE" transform="translate(128,203)"></path><path d="M0 0 C-1.33488128 3.59391114 -2.96022723 6.75490696 -5 10 C-5.99 9.67 -6.98 9.34 -8 9 C-6.52892562 2.38016529 -6.52892562 2.38016529 -4 0.5625 C-2 0 -2 0 0 0 Z " fill="#D6889D" transform="translate(248,263)"></path><path d="M0 0 C2.52259061 1.97420135 2.9929808 2.96745642 3.6875 6.1875 C3.790625 7.115625 3.89375 8.04375 4 9 C2.68 9 1.36 9 0 9 C-1.125 7.3125 -1.125 7.3125 -2 5 C-1.125 2.25 -1.125 2.25 0 0 Z " fill="#05E5ED" transform="translate(179,219)"></path><path d="M0 0 C2 3 2 3 1.75 5.5625 C1 8 1 8 -1 10 C-3.125 10.625 -3.125 10.625 -5 11 C-3.55049545 7.2089881 -1.84827434 3.6125362 0 0 Z " fill="#0D201E" transform="translate(284,202)"></path><path d="M0 0 C0.33 0 0.66 0 1 0 C1 2.31 1 4.62 1 7 C1.66 7 2.32 7 3 7 C2.625 8.9375 2.625 8.9375 2 11 C1.01 11.495 1.01 11.495 0 12 C-1.32 9.03 -2.64 6.06 -4 3 C-3.34 3 -2.68 3 -2 3 C-2 3.66 -2 4.32 -2 5 C-1.34 5 -0.68 5 0 5 C-0.2784375 4.0409375 -0.2784375 4.0409375 -0.5625 3.0625 C-0.706875 2.381875 -0.85125 1.70125 -1 1 C-0.67 0.67 -0.34 0.34 0 0 Z " fill="#131F20" transform="translate(196,237)"></path><path d="M0 0 C2.97069541 2.54631035 4.4775751 5.42230149 6 9 C5.67 9.66 5.34 10.32 5 11 C4.01 10.34 3.02 9.68 2 9 C2.33 8.34 2.66 7.68 3 7 C1.68 6.67 0.36 6.34 -1 6 C-0.67 4.02 -0.34 2.04 0 0 Z " fill="#14D3DA" transform="translate(159,178)"></path><path d="M0 0 C0.33 0.66 0.66 1.32 1 2 C0.37943989 3.68437744 -0.29289322 5.35008418 -1 7 C-1.2165625 8.0828125 -1.2165625 8.0828125 -1.4375 9.1875 C-2.38573917 12.24293731 -5.42263979 13.28175986 -8 15 C-6.62712658 11.30123909 -4.93644547 8.0485524 -2.875 4.6875 C-2.33617187 3.80449219 -1.79734375 2.92148438 -1.2421875 2.01171875 C-0.83226562 1.34785156 -0.42234375 0.68398437 0 0 Z " fill="#1CD5C3" transform="translate(250,170)"></path><path d="M0 0 C2.375 0.3125 2.375 0.3125 5 1 C7 4 7 4 7 8 C5.02 8 3.04 8 1 8 C1.66 6.02 2.32 4.04 3 2 C2.01 1.67 1.02 1.34 0 1 C0 0.67 0 0.34 0 0 Z " fill="#FDE5B5" transform="translate(191,156)"></path><path d="M0 0 C1.98 0.495 1.98 0.495 4 1 C3.67 3.31 3.34 5.62 3 8 C1.68 8 0.36 8 -1 8 C-0.67 5.36 -0.34 2.72 0 0 Z " fill="#03FAD3" transform="translate(259,156)"></path><path d="M0 0 C0.66 0 1.32 0 2 0 C2 0.66 2 1.32 2 2 C2.66 2 3.32 2 4 2 C4.66 2.66 5.32 3.32 6 4 C6.66 4 7.32 4 8 4 C8 5.65 8 7.3 8 9 C7.01 9.33 6.02 9.66 5 10 C3.35 6.7 1.7 3.4 0 0 Z " fill="#1F56AE" transform="translate(172,296)"></path><path d="M0 0 C1.65 0 3.3 0 5 0 C5.33 2.97 5.66 5.94 6 9 C5.01 8.67 4.02 8.34 3 8 C3 7.01 3 6.02 3 5 C2.34 5 1.68 5 1 5 C1 4.34 1 3.68 1 3 C0.34 2.67 -0.32 2.34 -1 2 C-0.67 1.34 -0.34 0.68 0 0 Z " fill="#0BC0E5" transform="translate(137,220)"></path><path d="M0 0 C2 3.75 2 3.75 2 6 C0.35 6.33 -1.3 6.66 -3 7 C-3.33 8.98 -3.66 10.96 -4 13 C-4.99 13.33 -5.98 13.66 -7 14 C-5.23570801 9.02790438 -2.6060834 4.56561939 0 0 Z " fill="#30122E" transform="translate(277,318)"></path><path d="M0 0 C1.32 0 2.64 0 4 0 C5.32 3.63 6.64 7.26 8 11 C7.01 11.495 7.01 11.495 6 12 C4.02 8.04 2.04 4.08 0 0 Z " fill="#E5BBC7" transform="translate(203,230)"></path><path d="M0 0 C0.66 0 1.32 0 2 0 C2 0.66 2 1.32 2 2 C2.99 2.66 3.98 3.32 5 4 C5.1875 6.625 5.1875 6.625 5 9 C3.68 9 2.36 9 1 9 C0.67 6.03 0.34 3.06 0 0 Z " fill="#03DDE5" transform="translate(184,231)"></path><path d="M0 0 C2.0625 2.1875 2.0625 2.1875 4 5 C3.75 7.8125 3.75 7.8125 3 10 C1.68 9.34 0.36 8.68 -1 8 C-0.67 5.36 -0.34 2.72 0 0 Z " fill="#1871BA" transform="translate(212,280)"></path><path d="M0 0 C0.99 0.33 1.98 0.66 3 1 C2.67 2.98 2.34 4.96 2 7 C0.35 7 -1.3 7 -3 7 C-1.125 1.125 -1.125 1.125 0 0 Z " fill="#EEA8A4" transform="translate(243,253)"></path><path d="M0 0 C5 6.59090909 5 6.59090909 5 11 C3.68 10.67 2.36 10.34 1 10 C0.37542727 6.56484998 0 3.50935186 0 0 Z " fill="#C5BCB4" transform="translate(242,243)"></path><path d="M0 0 C1.98 0 3.96 0 6 0 C6 0.66 6 1.32 6 2 C5.34 2 4.68 2 4 2 C3.34 3.98 2.68 5.96 2 8 C1.34 7.67 0.68 7.34 0 7 C0 4.69 0 2.38 0 0 Z " fill="#171616" transform="translate(225,200)"></path><path d="M0 0 C0.33 0.66 0.66 1.32 1 2 C-0.83539018 7.3022383 -3.2549137 10.8500395 -7 15 C-7 11.06025045 -5.52210525 9.17063907 -3.5 5.8125 C-2.8503125 4.72582031 -2.200625 3.63914063 -1.53125 2.51953125 C-1.0259375 1.68808594 -0.520625 0.85664063 0 0 Z " fill="#0C2825" transform="translate(301,174)"></path><path d="M0 0 C4.53491883 2.26745942 5.24877749 3.39151972 7 8 C6.67 9.32 6.34 10.64 6 12 C4.02 8.04 2.04 4.08 0 0 Z " fill="#291E39" transform="translate(183,130)"></path><path d="M0 0 C1.32 0 2.64 0 4 0 C4.125 2.875 4.125 2.875 4 6 C3.34 6.66 2.68 7.32 2 8 C1.01 5.69 0.02 3.38 -1 1 C-0.67 0.67 -0.34 0.34 0 0 Z " fill="#2F47A9" transform="translate(186,316)"></path><path d="M0 0 C2 2 2 2 2 5 C1.37400383 6.68236471 0.71247732 8.3523962 0 10 C-0.66 10 -1.32 10 -2 10 C-2.25 3.375 -2.25 3.375 0 0 Z " fill="#7F3584" transform="translate(238,310)"></path><path d="M0 0 C0.33 0.66 0.66 1.32 1 2 C0.0625 4.625 0.0625 4.625 -1 7 C-0.34 7.33 0.32 7.66 1 8 C-0.65 8.33 -2.3 8.66 -4 9 C-4.33 9.99 -4.66 10.98 -5 12 C-5.66 11.67 -6.32 11.34 -7 11 C-4.69 7.37 -2.38 3.74 0 0 Z " fill="#0F2729" transform="translate(266,233)"></path><path d="M0 0 C1.90318884 2.85478326 2.4619099 4.41941308 3.125 7.6875 C3.29257813 8.49574219 3.46015625 9.30398438 3.6328125 10.13671875 C3.75398437 10.75160156 3.87515625 11.36648438 4 12 C3.34 12 2.68 12 2 12 C1.87625 11.360625 1.7525 10.72125 1.625 10.0625 C1.41875 9.381875 1.2125 8.70125 1 8 C0.34 7.67 -0.32 7.34 -1 7 C-1.04254356 5.00045254 -1.04080783 2.99958364 -1 1 C-0.67 0.67 -0.34 0.34 0 0 Z " fill="#241150" transform="translate(209,366)"></path><path d="M0 0 C0 4.24645065 -1.81750806 6.38524772 -4 10 C-4.33 9.34 -4.66 8.68 -5 8 C-5.66 8 -6.32 8 -7 8 C-6.67 7.01 -6.34 6.02 -6 5 C-5.34 5 -4.68 5 -4 5 C-3.71125 4.360625 -3.4225 3.72125 -3.125 3.0625 C-2 1 -2 1 0 0 Z " fill="#380B6D" transform="translate(248,367)"></path><path d="M0 0 C0.99 0.33 1.98 0.66 3 1 C3 2.98 3 4.96 3 7 C1.68 7.33 0.36 7.66 -1 8 C-1.125 2.25 -1.125 2.25 0 0 Z " fill="#95497E" transform="translate(245,297)"></path><path d="M0 0 C0.99 0 1.98 0 3 0 C2.71125 0.680625 2.4225 1.36125 2.125 2.0625 C0.87402645 5.32893093 -0.07447955 8.62846123 -1 12 C-2.32087692 9.82443801 -3.07112439 8.56899513 -2.75 6 C-1.96713323 3.91235527 -1.05252193 1.96470761 0 0 Z " fill="#CFADB5" transform="translate(277,243)"></path><path d="M0 0 C0.33 0.99 0.66 1.98 1 3 C1.66 2.67 2.32 2.34 3 2 C3 2.99 3 3.98 3 5 C2.01 5 1.02 5 0 5 C-0.33 6.65 -0.66 8.3 -1 10 C-1.66 9.01 -2.32 8.02 -3 7 C-1.59459459 1.59459459 -1.59459459 1.59459459 0 0 Z " fill="#10201D" transform="translate(275,218)"></path><path d="M0 0 C2.31 0.66 4.62 1.32 7 2 C6.67 3.65 6.34 5.3 6 7 C3.00675737 5.9024777 2.15389099 5.32317108 0.75 2.375 C0.5025 1.59125 0.255 0.8075 0 0 Z " fill="#E1A8B2" transform="translate(214,251)"></path><path d="M0 0 C1.24546405 2.49092811 0.7767578 3.41080733 0 6 C-1.32 6 -2.64 6 -4 6 C-4.66 7.65 -5.32 9.3 -6 11 C-6.33 10.34 -6.66 9.68 -7 9 C-6.06553465 6.96855359 -5.06775224 4.96466413 -4 3 C-3.01 3 -2.02 3 -1 3 C-0.67 2.01 -0.34 1.02 0 0 Z " fill="#E0C8C9" transform="translate(285,233)"></path><path d="M0 0 C0.33 0.66 0.66 1.32 1 2 C0.34 1.67 -0.32 1.34 -1 1 C-0.67 0.67 -0.34 0.34 0 0 Z M-2 2 C-0.7922442 5.62326739 -1.45688872 6.64146369 -3 10 C-4.32 9.67 -5.64 9.34 -7 9 C-6.34 7.68 -5.68 6.36 -5 5 C-4.34 5 -3.68 5 -3 5 C-2.67 4.01 -2.34 3.02 -2 2 Z " fill="#FBCC8C" transform="translate(332,220)"></path><path d="M0 0 C0.99 0 1.98 0 3 0 C3 0.66 3 1.32 3 2 C3.99 2.66 4.98 3.32 6 4 C6 5.32 6 6.64 6 8 C4.125 7.375 4.125 7.375 2 6 C0.75 2.875 0.75 2.875 0 0 Z " fill="#06EDF2" transform="translate(159,185)"></path><path d="M0 0 C0.99 0.33 1.98 0.66 3 1 C2.34 2.98 1.68 4.96 1 7 C-0.32 7 -1.64 7 -3 7 C-2.38722388 4.03824877 -1.74627478 2.61941217 0 0 Z " fill="#07F4E2" transform="translate(245,181)"></path><path d="M0 0 C0.33 0.66 0.66 1.32 1 2 C1.99 2.33 2.98 2.66 4 3 C4 4.32 4 5.64 4 7 C4.66 7 5.32 7 6 7 C6.33 7.99 6.66 8.98 7 10 C5.1875 9.875 5.1875 9.875 3 9 C1.04679411 5.79116175 0 3.7794561 0 0 Z " fill="#F2DAD0" transform="translate(171,165)"></path><path d="M0 0 C0.66 0 1.32 0 2 0 C1.42365861 4.75481646 -0.55068521 7.97048212 -3 12 C-3.6875 10.3125 -3.6875 10.3125 -4 8 C-2.625 5.4375 -2.625 5.4375 -1 3 C-0.67 2.01 -0.34 1.02 0 0 Z " fill="#1EC6AB" transform="translate(328,121)"></path><path d="M0 0 C0.33 0.66 0.66 1.32 1 2 C0.04692201 3.74183219 -0.91411417 5.48056772 -1.94140625 7.1796875 C-3.21463353 9.36907464 -4.13552013 11.62268035 -5 14 C-5.66 14 -6.32 14 -7 14 C-5.53967505 8.68972746 -3.01679014 4.53669968 0 0 Z " fill="#29DCCA" transform="translate(287,106)"></path><path d="M0 0 C0.99 0.33 1.98 0.66 3 1 C1.68 3.31 0.36 5.62 -1 8 C-1.66 8 -2.32 8 -3 8 C-3 8.66 -3 9.32 -3 10 C-3.66 10 -4.32 10 -5 10 C-4.67 8.68 -4.34 7.36 -4 6 C-3.34 6 -2.68 6 -2 6 C-1.34 4.02 -0.68 2.04 0 0 Z " fill="#410B71" transform="translate(262,340)"></path><path d="M0 0 C1.98 0 3.96 0 6 0 C3.53846154 4.8 3.53846154 4.8 0.8125 5.8125 C0.214375 5.874375 -0.38375 5.93625 -1 6 C-0.67 4.02 -0.34 2.04 0 0 Z " fill="#802385" transform="translate(273,316)"></path><path d="M0 0 C1.98 0 3.96 0 6 0 C6.33 0.66 6.66 1.32 7 2 C5.68 3.65 4.36 5.3 3 7 C2.01 4.69 1.02 2.38 0 0 Z " fill="#AA587E" transform="translate(230,282)"></path><path d="M0 0 C1.2077558 3.62326739 0.54311128 4.64146369 -1 8 C-1.66 8 -2.32 8 -3 8 C-3 8.66 -3 9.32 -3 10 C-3.99 9.67 -4.98 9.34 -6 9 C-4.02 6.03 -2.04 3.06 0 0 Z " fill="#CFCEC9" transform="translate(294,215)"></path><path d="M0 0 C0.66 0 1.32 0 2 0 C2.33 0.99 2.66 1.98 3 3 C3.66 3.33 4.32 3.66 5 4 C5 5.65 5 7.3 5 9 C5.66 9.33 6.32 9.66 7 10 C6.34 10.66 5.68 11.32 5 12 C4.16180842 10.37750059 3.3295884 8.75191503 2.5 7.125 C2.0359375 6.22007812 1.571875 5.31515625 1.09375 4.3828125 C0 2 0 2 0 0 Z " fill="#0E1D1A" transform="translate(183,221)"></path><path d="M0 0 C2.64465038 3.1254959 3.84414715 6.08788267 5 10 C4.34 10 3.68 10 3 10 C0.76383019 7.49548981 -0.55353168 5.3485124 -1 2 C-0.67 1.34 -0.34 0.68 0 0 Z " fill="#111C37" transform="translate(122,197)"></path><path d="M0 0 C1.65 0.33 3.3 0.66 5 1 C5 2.32 5 3.64 5 5 C3.02 5 1.04 5 -1 5 C-0.67 3.35 -0.34 1.7 0 0 Z " fill="#06EFEE" transform="translate(137,143)"></path><path d="M0 0 C0.33 0 0.66 0 1 0 C1.33 2.64 1.66 5.28 2 8 C1.34 8 0.68 8 0 8 C0 7.34 0 6.68 0 6 C-0.99 5.67 -1.98 5.34 -3 5 C-2.67 3.68 -2.34 2.36 -2 1 C-1.34 1.33 -0.68 1.66 0 2 C0 1.34 0 0.68 0 0 Z " fill="#0DFCF5" transform="translate(100,140)"></path><path d="M0 0 C0.66 0 1.32 0 2 0 C2 0.66 2 1.32 2 2 C2.66 2 3.32 2 4 2 C4.12375 2.78375 4.2475 3.5675 4.375 4.375 C4.79117993 7.14057822 4.79117993 7.14057822 7 9 C6.01 10.485 6.01 10.485 5 12 C4.16180842 10.37750059 3.3295884 8.75191503 2.5 7.125 C2.0359375 6.22007812 1.571875 5.31515625 1.09375 4.3828125 C0 2 0 2 0 0 Z " fill="#30D0E2" transform="translate(93,138)"></path><path d="M0 0 C0.66 0 1.32 0 2 0 C2 1.32 2 2.64 2 4 C-1 6.25 -1 6.25 -4 8 C-4 6.35 -4 4.7 -4 3 C-2.68 2.67 -1.36 2.34 0 2 C0 1.34 0 0.68 0 0 Z " fill="#06D2B3" transform="translate(333,110)"></path><path d="M0 0 C0.99 0.33 1.98 0.66 3 1 C1.35 3.64 -0.3 6.28 -2 9 C-2.66 7.68 -3.32 6.36 -4 5 C-3.34 5 -2.68 5 -2 5 C-2 4.01 -2 3.02 -2 2 C-1.34 2 -0.68 2 0 2 C0 1.34 0 0.68 0 0 Z " fill="#172529" transform="translate(286,103)"></path><path d="M0 0 C0.97533063 2.63339271 1.019574 3.92348347 0.3125 6.6875 C-1 9 -1 9 -3.125 9.8125 C-3.74375 9.874375 -4.3625 9.93625 -5 10 C-3.66511872 6.40608886 -2.03977277 3.24509304 0 0 Z " fill="#9F5D7F" transform="translate(253,284)"></path><path d="M0 0 C3.99996286 1.33332095 4.83782337 3.4957827 7 7 C5.68 7 4.36 7 3 7 C2.01 4.69 1.02 2.38 0 0 Z " fill="#1B6DBB" transform="translate(164,280)"></path><path d="M0 0 C0.99 0 1.98 0 3 0 C2.67 1.32 2.34 2.64 2 4 C2.66 4 3.32 4 4 4 C4 5.32 4 6.64 4 8 C2.68 7.67 1.36 7.34 0 7 C0 4.69 0 2.38 0 0 Z " fill="#FAE4B8" transform="translate(201,170)"></path><path d="M0 0 C2.86724686 0.57344937 3.8614515 0.8614515 6 3 C5.34 3 4.68 3 4 3 C4.33 4.32 4.66 5.64 5 7 C4.01 7.495 4.01 7.495 3 8 C0 2.25 0 2.25 0 0 Z " fill="#16212C" transform="translate(156,170)"></path><path d="M0 0 C-0.33 0.66 -0.66 1.32 -1 2 C-2.32488113 2.36548445 -3.66018514 2.6937566 -5 3 C-6.3479743 3.63654342 -7.68596724 4.29605388 -9 5 C-8.625 2.5625 -8.625 2.5625 -8 0 C-5.13822943 -1.43088528 -3.06624227 -0.59991697 0 0 Z " fill="#09F3CE" transform="translate(296,105)"></path><path d="M0 0 C0.66 0 1.32 0 2 0 C2 0.99 2 1.98 2 3 C1.34 3 0.68 3 0 3 C0 3.99 0 4.98 0 6 C-0.66 6 -1.32 6 -2 6 C-1.67 7.98 -1.34 9.96 -1 12 C-3 9 -3 9 -2.75 6 C-2 3 -2 3 0 0 Z " fill="#111D13" transform="translate(284,102)"></path><path d="M0 0 C2.89932357 2.39509338 3.50168276 4.31245243 4 8 C1.03 7.505 1.03 7.505 -2 7 C-2 6.34 -2 5.68 -2 5 C-1.34 4.67 -0.68 4.34 0 4 C0 2.68 0 1.36 0 0 Z " fill="#14BED9" transform="translate(197,251)"></path><path d="M0 0 C0.66 0.66 1.32 1.32 2 2 C0.35 4.64 -1.3 7.28 -3 10 C-4 6 -4 6 -4 3 C-3.34 2.67 -2.68 2.34 -2 2 C-1.34 2.33 -0.68 2.66 0 3 C0 2.01 0 1.02 0 0 Z " fill="#1DBFA8" transform="translate(263,234)"></path><path d="M0 0 C0.66 0 1.32 0 2 0 C3.32421875 1.64453125 3.32421875 1.64453125 4.6875 3.8125 C5.14511719 4.52019531 5.60273438 5.22789062 6.07421875 5.95703125 C7 8 7 8 6 11 C3.13546142 7.58983503 1.65296434 4.09305456 0 0 Z " fill="#25A4D4" transform="translate(130,212)"></path><path d="M0 0 C1.66666667 0 3.33333333 0 5 0 C4.979375 0.78375 4.95875 1.5675 4.9375 2.375 C4.81315937 4.98114961 4.81315937 4.98114961 6 7 C5.34 7.66 4.68 8.32 4 9 C2.68 6.03 1.36 3.06 0 0 Z " fill="#102729" transform="translate(175,207)"></path><path d="M0 0 C1.32 0 2.64 0 4 0 C4 0.99 4 1.98 4 3 C4.66 3.33 5.32 3.66 6 4 C5.01 5.485 5.01 5.485 4 7 C1 5 1 5 0.3125 2.375 C0.209375 1.59125 0.10625 0.8075 0 0 Z " fill="#0CF2F3" transform="translate(114,177)"></path><path d="M0 0 C0.66 0.33 1.32 0.66 2 1 C1.67 3.64 1.34 6.28 1 9 C0.34 8.67 -0.32 8.34 -1 8 C-1.04241723 5.66705225 -1.04092937 3.33297433 -1 1 C-0.67 0.67 -0.34 0.34 0 0 Z " fill="#0CE8EC" transform="translate(152,165)"></path><path d="M0 0 C3.0916909 2.52956528 3.90931332 5.22454612 5 9 C4.01 9 3.02 9 2 9 C0.50178941 5.62902617 0 3.79557881 0 0 Z " fill="#141439" transform="translate(193,338)"></path><path d="M0 0 C0.66 0.33 1.32 0.66 2 1 C2.25 4.3125 2.25 4.3125 2 8 C0 9.9375 0 9.9375 -2 11 C-2.33 10.01 -2.66 9.02 -3 8 C-2.01 7.67 -1.02 7.34 0 7 C0 4.69 0 2.38 0 0 Z " fill="#4F2B86" transform="translate(231,316)"></path><path d="M0 0 C2.32472205 2.85306797 3.7508258 5.54074837 5 9 C4.34 9 3.68 9 3 9 C2.67 9.66 2.34 10.32 2 11 C0.80712589 7.12315913 0 4.08378077 0 0 Z " fill="#1AD5E1" transform="translate(168,195)"></path><path d="M0 0 C2.6855594 2.6855594 3.06049974 5.37621328 4 9 C2.68 9 1.36 9 0 9 C0 6.03 0 3.06 0 0 Z " fill="#17D4DC" transform="translate(142,144)"></path><path d="M0 0 C2.15377564 2.62198774 3.40072174 4.64404172 4 8 C2.35 7.67 0.7 7.34 -1 7 C-0.67 4.69 -0.34 2.38 0 0 Z " fill="#19C7CF" transform="translate(138,136)"></path><path d="M0 0 C1.98 0.495 1.98 0.495 4 1 C2.68 3.31 1.36 5.62 0 8 C-0.33 8 -0.66 8 -1 8 C-0.67 5.36 -0.34 2.72 0 0 Z " fill="#112523" transform="translate(265,137)"></path><path d="M0 0 C0 3.20395416 -0.74335022 5.09399739 -2 8 C-2.66 8 -3.32 8 -4 8 C-4 6.02 -4 4.04 -4 2 C-2.68 1.34 -1.36 0.68 0 0 Z " fill="#0FF4D3" transform="translate(282,119)"></path><path d="M0 0 C0.66 0 1.32 0 2 0 C2.103125 0.639375 2.20625 1.27875 2.3125 1.9375 C2.539375 2.618125 2.76625 3.29875 3 4 C3.99 4.33 4.98 4.66 6 5 C6 6.98 6 8.96 6 11 C3.13546142 7.58983503 1.65296434 4.09305456 0 0 Z " fill="#0E2731" transform="translate(164,186)"></path><path d="M0 0 C0.66 0 1.32 0 2 0 C3.1577506 3.47325181 3.06866652 6.36067448 3 10 C2.34 10 1.68 10 1 10 C0.67 6.7 0.34 3.4 0 0 Z " fill="#FBE6C0" transform="translate(184,136)"></path><path d="M0 0 C0.66 0 1.32 0 2 0 C2.33 1.32 2.66 2.64 3 4 C3.66 4 4.32 4 5 4 C5 5.98 5 7.96 5 10 C2.35534962 6.8745041 1.15585285 3.91211733 0 0 Z " fill="#2DC6DD" transform="translate(88,128)"></path><path d="M0 0 C2.31 0 4.62 0 7 0 C6.01 0.33 5.02 0.66 4 1 C4.33 2.32 4.66 3.64 5 5 C4.01 5 3.02 5 2 5 C1.34 3.35 0.68 1.7 0 0 Z " fill="#E6D5CB" transform="translate(150,128)"></path><path d="M0 0 C0.6875 1.6875 0.6875 1.6875 1 4 C-0.4375 6.75 -0.4375 6.75 -2 9 C-2.6875 7.3125 -2.6875 7.3125 -3 5 C-1.5625 2.25 -1.5625 2.25 0 0 Z " fill="#06FACB" transform="translate(286,110)"></path><path d="M0 0 C3 1 3 1 4.75 4.375 C6 8 6 8 5 11 C4.16151196 9.54462432 3.32936066 8.08559627 2.5 6.625 C1.80390625 5.40683594 1.80390625 5.40683594 1.09375 4.1640625 C0 2 0 2 0 0 Z " fill="#191630" transform="translate(226,305)"></path><path d="M0 0 C-1.2491742 3.45925163 -2.67527795 6.14693203 -5 9 C-5.36666667 3.5 -5.36666667 3.5 -3.625 1.125 C-2 0 -2 0 0 0 Z " fill="#E2B59A" transform="translate(313,258)"></path><path d="M0 0 C0.33 1.32 0.66 2.64 1 4 C0.01 5.485 0.01 5.485 -1 7 C-1.66 7 -2.32 7 -3 7 C-3 7.66 -3 8.32 -3 9 C-3.66 8.67 -4.32 8.34 -5 8 C-3.35 5.36 -1.7 2.72 0 0 Z " fill="#35241F" transform="translate(315,255)"></path><path d="M0 0 C1 3 1 3 0.22265625 4.82421875 C-0.8515625 6.54947917 -1.92578125 8.27473958 -3 10 C-3.66 9.67 -4.32 9.34 -5 9 C-3.35 6.03 -1.7 3.06 0 0 Z " fill="#0F2E2D" transform="translate(292,189)"></path><path d="M0 0 C0.66 0.33 1.32 0.66 2 1 C0.8141763 4.37503669 -0.27573689 6.64722731 -3 9 C-3 7.35 -3 5.7 -3 4 C-2.01 4 -1.02 4 0 4 C0 2.68 0 1.36 0 0 Z " fill="#0E2828" transform="translate(250,165)"></path><path d="M0 0 C2.89932357 2.39509338 3.50168276 4.31245243 4 8 C2.68 8.33 1.36 8.66 0 9 C0 8.34 0 7.68 0 7 C0.66 7 1.32 7 2 7 C1.34 4.69 0.68 2.38 0 0 Z " fill="#1BCDDB" transform="translate(147,155)"></path><path d="M0 0 C0.66 0 1.32 0 2 0 C1.34 1.98 0.68 3.96 0 6 C-0.99 6 -1.98 6 -3 6 C-2.67 4.68 -2.34 3.36 -2 2 C-1.34 2 -0.68 2 0 2 C0 1.34 0 0.68 0 0 Z " fill="#09F6CD" transform="translate(269,140)"></path><path d="M0 0 C1.98 0 3.96 0 6 0 C5.01 1.485 5.01 1.485 4 3 C3.34 3 2.68 3 2 3 C1.67 3.99 1.34 4.98 1 6 C0.67 4.02 0.34 2.04 0 0 Z " fill="#F6E3C7" transform="translate(154,129)"></path><path d="M0 0 C2.79872437 2.52788007 4.45773019 4.20411134 5 8 C4.34 8 3.68 8 3 8 C2.731875 7.360625 2.46375 6.72125 2.1875 6.0625 C1.11332248 3.66868314 1.11332248 3.66868314 -2 3 C-2 2.34 -2 1.68 -2 1 C-1.34 0.67 -0.68 0.34 0 0 Z " fill="#1DCBD5" transform="translate(133,128)"></path><path d="M0 0 C1 2 1 2 0.25 5.0625 C-0.1625 6.031875 -0.575 7.00125 -1 8 C-1.99 8.33 -2.98 8.66 -4 9 C-2.94124926 5.59687262 -1.99097846 2.98646769 0 0 Z " fill="#0F2827" transform="translate(332,119)"></path><path d="M0 0 C0.66 0.33 1.32 0.66 2 1 C2 3.31 2 5.62 2 8 C0 7 0 7 -1.125 3.9375 C-1.41375 2.968125 -1.7025 1.99875 -2 1 C-1.34 0.67 -0.68 0.34 0 0 Z " fill="#2D1B79" transform="translate(206,359)"></path><path d="M0 0 C0.99 0.33 1.98 0.66 3 1 C2.01 2.98 1.02 4.96 0 7 C-0.66 6.67 -1.32 6.34 -2 6 C-1.34 4.02 -0.68 2.04 0 0 Z " fill="#281A21" transform="translate(242,298)"></path><path d="M0 0 C0.99 0.33 1.98 0.66 3 1 C1.68 2.65 0.36 4.3 -1 6 C-1.66 4.68 -2.32 3.36 -3 2 C-2.01 1.34 -1.02 0.68 0 0 Z " fill="#B0627D" transform="translate(290,293)"></path><path d="M0 0 C2 3 2 3 2 5 C0 6.625 0 6.625 -2 8 C-2.66 7.67 -3.32 7.34 -4 7 C-2.68 4.69 -1.36 2.38 0 0 Z " fill="#102C29" transform="translate(258,246)"></path><path d="M0 0 C1.9375 0.3125 1.9375 0.3125 4 1 C4.33 1.99 4.66 2.98 5 4 C4.01 4.66 3.02 5.32 2 6 C1.34 4.02 0.68 2.04 0 0 Z " fill="#E9C4C9" transform="translate(183,190)"></path><path d="M0 0 C1.65 0 3.3 0 5 0 C5.33 0.66 5.66 1.32 6 2 C5.01 2.99 4.02 3.98 3 5 C2.01 3.35 1.02 1.7 0 0 Z " fill="#172526" transform="translate(233,188)"></path><path d="M0 0 C1.04449911 3.13349732 0.93423645 3.98968256 0 7 C-0.66 7 -1.32 7 -2 7 C-2 7.66 -2 8.32 -2 9 C-2.66 9 -3.32 9 -4 9 C-2.80100302 5.9168649 -1.52299523 2.93720508 0 0 Z " fill="#1FD9B7" transform="translate(271,133)"></path><path d="M0 0 C0.33 0.66 0.66 1.32 1 2 C1.66 2 2.32 2 3 2 C2.34 3.98 1.68 5.96 1 8 C-0.42944945 5.64561267 -1.08661261 4.51967567 -0.625 1.75 C-0.41875 1.1725 -0.2125 0.595 0 0 Z " fill="#141E20" transform="translate(273,122)"></path></svg>