<svg xmlns="http://www.w3.org/2000/svg" width="32" height="18" viewBox="0 0 32 18" fill="none">
<path fill-rule="evenodd" clip-rule="evenodd" d="M26.4373 2.9177H26.9766C27.1482 2.9177 27.2953 2.94841 27.3933 3.04055C27.4914 3.10197 27.5649 3.22482 27.6139 3.31696C27.663 3.43981 27.6875 3.56266 27.712 3.68551C27.7365 3.83908 27.7365 3.96193 27.7365 4.05406V6.8182C27.7365 7.15604 27.7855 7.43245 27.9081 7.64744C28.0307 7.86243 28.1777 8.0467 28.3738 8.16955C28.5454 8.2924 28.766 8.38454 28.9621 8.44597C29.1827 8.50739 29.3788 8.53811 29.5504 8.53811V8.56882C29.3981 8.56882 29.2265 8.59301 29.0356 8.61992L28.9621 8.63024C28.7415 8.66096 28.5454 8.75309 28.3738 8.87595C28.2022 8.9988 28.0307 9.18307 27.9081 9.42877C27.7855 9.67447 27.7365 10.0123 27.7365 10.4116V13.0221C27.7365 13.145 27.7365 13.2678 27.712 13.3907C27.6875 13.5443 27.663 13.6671 27.5894 13.7593C27.5404 13.8821 27.4424 13.9742 27.3198 14.0357C27.1972 14.0971 27.0501 14.1585 26.8295 14.1585H26.4128V17.1991H28.1532C28.3983 17.1991 28.6435 17.1376 28.8886 17.0455C29.1337 16.9534 29.3788 16.7998 29.5995 16.6155C29.8201 16.4312 29.9917 16.1548 30.1387 15.8477C30.2858 15.5406 30.3348 15.172 30.3348 14.7421V11.3022C30.3348 11.0258 30.3839 10.8108 30.4819 10.6573C30.58 10.5037 30.7025 10.3809 30.8496 10.2887C30.9967 10.1966 31.1437 10.1352 31.2908 10.1044C31.4379 10.0737 31.5605 10.0737 31.634 10.0737V7.15604C31.5359 7.15604 31.4379 7.15604 31.2908 7.12533C31.1437 7.09461 30.9967 7.0639 30.8741 6.97176C30.727 6.87962 30.629 6.78749 30.5064 6.63392C30.3839 6.48036 30.3593 6.29609 30.3593 6.05038V2.45701C30.3593 2.02703 30.2858 1.65848 30.1632 1.35135C30.0162 1.04423 29.8446 0.798528 29.624 0.583539C29.4034 0.399264 29.1827 0.245701 28.9131 0.153563C28.668 0.0614252 28.4229 0 28.1777 0H26.4373V2.9177ZM5.19664 2.91791H4.65736C4.48578 2.91791 4.3387 2.94862 4.24065 3.04076C4.1426 3.10219 4.06907 3.22504 4.02004 3.31718C3.97102 3.44002 3.9465 3.56287 3.92199 3.68572L3.92199 3.68573C3.89748 3.83929 3.89748 3.96214 3.89748 4.05428V6.81841C3.89748 7.15625 3.84845 7.43267 3.72589 7.64765C3.60333 7.86264 3.45625 8.04692 3.26016 8.16977C3.08857 8.29262 2.86796 8.38476 2.67186 8.44618C2.45124 8.50761 2.25515 8.53832 2.08356 8.53832V8.56903C2.23584 8.56903 2.40744 8.59322 2.59834 8.62014H2.59835L2.67186 8.63046C2.89247 8.66117 3.08857 8.75331 3.26016 8.87616C3.43174 8.99901 3.60333 9.18328 3.72589 9.42899C3.84845 9.67469 3.89748 10.0125 3.89748 10.4118V13.0224C3.89748 13.1452 3.89748 13.2681 3.92199 13.3909C3.9465 13.5445 3.97102 13.6673 4.04455 13.7595C4.09358 13.8823 4.19163 13.9745 4.31419 14.0359C4.43675 14.0973 4.58383 14.1587 4.80444 14.1587H5.22115V17.1993H3.48077C3.23564 17.1993 2.99052 17.1378 2.74539 17.0457C2.50027 16.9536 2.25515 16.8 2.03453 16.6157C1.81392 16.4315 1.64233 16.155 1.49526 15.8479C1.34818 15.5408 1.29916 15.1722 1.29916 14.7423V11.3025C1.29916 11.026 1.25013 10.8111 1.15208 10.6575C1.05404 10.5039 0.931473 10.3811 0.784398 10.2889C0.637324 10.1968 0.490249 10.1354 0.343174 10.1047C0.1961 10.074 0.0735373 10.0739 0 10.0739V7.15625H4.56676e-06C0.0980528 7.15625 0.196102 7.15625 0.343174 7.12554C0.490249 7.09483 0.637324 7.06411 0.759886 6.97198C0.90696 6.87984 1.00501 6.7877 1.12757 6.63414C1.25013 6.48057 1.27465 6.2963 1.27465 6.0506V2.45722C1.27465 2.02725 1.34818 1.65869 1.47075 1.35157C1.61782 1.04444 1.78941 0.798742 2.01002 0.583753C2.23063 0.399478 2.45124 0.245915 2.72088 0.153777C2.96601 0.0616391 3.21113 0.000213846 3.45625 0.000213846H5.19664V2.91791ZM21.015 10.86L10.8747 0.614217H8.46317V3.05082L18.6035 13.2966L16.797 15.1219L17.9985 16.3359L20.0776 14.2092L22.8215 16.9386C23.1538 17.2744 23.6907 17.2744 24.023 16.9386L24.628 16.3273C24.9603 15.9915 24.9603 15.4491 24.628 15.1133L21.9182 12.3753L24.023 10.2487L22.8215 9.0347L21.015 10.86ZM23.1709 3.04221L19.1318 7.1233L16.7203 4.69531L20.7593 0.614217H23.1709V3.04221ZM12.5022 8.95721L14.9138 11.4282L13.0306 13.2966L14.8371 15.1219L13.6356 16.3359L11.5564 14.2092L8.81254 16.9472C8.48021 17.283 7.94337 17.283 7.61104 16.9472L7.00603 16.3359C6.6737 16.0001 6.6737 15.4577 7.00603 15.1219L9.71579 12.3753L7.61104 10.2487L8.81254 9.0347L10.619 10.86L12.5022 8.95721Z" fill="#e9e9e9"/>
</svg>